<svg width="41" height="37" viewBox="0 0 41 37" fill="none" xmlns="http://www.w3.org/2000/svg">
<rect x="0.797119" y="0.689026" width="40" height="36" rx="18" fill="#D0D0D0" fill-opacity="0.2"/>
<path d="M29.5471 17.547H14.7221L19.2596 12.5646C19.4718 12.3312 19.5739 12.0303 19.5434 11.7282C19.5129 11.426 19.3524 11.1473 19.0971 10.9533C18.8418 10.7593 18.5127 10.666 18.1822 10.6939C17.8517 10.7217 17.5468 10.8685 17.3346 11.1018L11.0846 17.9584C11.0426 18.0129 11.005 18.0702 10.9721 18.1298C10.9721 18.1869 10.9721 18.2212 10.8846 18.2783C10.828 18.4094 10.7983 18.5489 10.7971 18.6897C10.7983 18.8306 10.828 18.9701 10.8846 19.1011C10.8846 19.1583 10.8846 19.1926 10.9721 19.2497C11.005 19.3093 11.0426 19.3666 11.0846 19.4211L17.3346 26.2776C17.4521 26.4066 17.5993 26.5104 17.7657 26.5815C17.932 26.6526 18.1135 26.6893 18.2971 26.689C18.5892 26.6895 18.8722 26.5966 19.0971 26.4262C19.2237 26.3303 19.3283 26.2124 19.405 26.0795C19.4817 25.9465 19.5289 25.801 19.544 25.6514C19.5591 25.5017 19.5418 25.3508 19.493 25.2072C19.4442 25.0637 19.3649 24.9304 19.2596 24.8149L14.7221 19.8325H29.5471C29.8786 19.8325 30.1966 19.7121 30.431 19.4978C30.6654 19.2835 30.7971 18.9928 30.7971 18.6897C30.7971 18.3867 30.6654 18.096 30.431 17.8817C30.1966 17.6674 29.8786 17.547 29.5471 17.547Z" fill="white"/>
</svg>
