<svg width="319" height="195" viewBox="0 0 319 195" fill="none" xmlns="http://www.w3.org/2000/svg">
<rect x="0.232507" y="0.808282" width="318.535" height="193.911" rx="18.3681" stroke="#252727" stroke-opacity="0.2" stroke-width="0.465015"/>
<path d="M16.8568 116.829C16.8568 112.784 20.1358 109.505 24.1808 109.505H32.551C36.596 109.505 39.875 112.784 39.875 116.829V161.354H16.8568V116.829Z" fill="#FFAFAF" stroke="#252726" stroke-width="0.232507"/>
<path d="M60.5682 106.599C60.5682 102.554 63.8472 99.275 67.8921 99.275H75.3324C79.3773 99.275 82.6564 102.554 82.6564 106.599V161.354H60.5682V106.599Z" fill="#FFAFAF" stroke="#252726" stroke-width="0.232507"/>
<path d="M104.28 128.92C104.28 124.875 107.559 121.596 111.604 121.596H119.044C123.089 121.596 126.368 124.875 126.368 128.92V161.354H104.28V128.92Z" fill="#FFAFAF" stroke="#252726" stroke-width="0.232507"/>
<path d="M191.702 61.0276C191.702 56.9827 194.981 53.7036 199.026 53.7036H206.466C210.511 53.7036 213.79 56.9827 213.79 61.0276V161.354H191.702V61.0276Z" fill="#5EAFA1" stroke="black" stroke-width="0.232507"/>
<path d="M147.991 92.6485C147.991 88.6036 151.27 85.3246 155.315 85.3246H162.755C166.8 85.3246 170.079 88.6036 170.079 92.6485V161.354H147.991V92.6485Z" fill="#FFAFAF" stroke="#252726" stroke-width="0.232507"/>
<path d="M235.414 99.1588C235.414 95.1138 238.693 91.8348 242.738 91.8348H250.178C254.223 91.8348 257.502 95.1138 257.502 99.1588V161.354H235.414V99.1588Z" fill="#FFAFAF" stroke="#252726" stroke-width="0.232507"/>
<path d="M279.125 116.829C279.125 112.784 282.404 109.505 286.449 109.505H293.889C297.934 109.505 301.213 112.784 301.213 116.829V161.354H279.125V116.829Z" fill="#FFAFAF" stroke="#252726" stroke-width="0.232507"/>
<path d="M20.3244 177.051L17.9103 170.076H17.8667C17.8885 170.345 17.9067 170.612 17.9212 170.877C17.9357 171.106 17.9466 171.347 17.9539 171.602C17.9648 171.852 17.9702 172.081 17.9702 172.288V177.051H17.0329V169.084H18.537L20.7821 175.58H20.8148L23.0709 169.084H24.5749V177.051H23.5613V172.217C23.5613 172.028 23.5649 171.812 23.5722 171.569C23.5795 171.325 23.5886 171.093 23.5995 170.871C23.614 170.613 23.6267 170.352 23.6376 170.087H23.594L21.1581 177.051H20.3244ZM31.4847 174.048C31.4847 174.546 31.423 174.989 31.2994 175.378C31.1796 175.763 31.0052 176.088 30.7763 176.353C30.5511 176.615 30.2768 176.815 29.9534 176.953C29.6301 177.091 29.2668 177.16 28.8636 177.16C28.4894 177.16 28.1442 177.091 27.8282 176.953C27.5121 176.815 27.2378 176.615 27.0053 176.353C26.7764 176.088 26.5966 175.763 26.4658 175.378C26.3387 174.989 26.2751 174.546 26.2751 174.048C26.2751 173.554 26.335 173.116 26.4549 172.735C26.5785 172.35 26.7528 172.027 26.9781 171.765C27.2033 171.5 27.4776 171.3 27.8009 171.166C28.1279 171.028 28.493 170.958 28.8963 170.958C29.2704 170.958 29.6156 171.028 29.9316 171.166C30.2477 171.3 30.5202 171.5 30.7491 171.765C30.9816 172.027 31.1614 172.35 31.2885 172.735C31.4193 173.116 31.4847 173.554 31.4847 174.048ZM27.2996 174.048C27.2996 174.808 27.4231 175.38 27.6701 175.765C27.9208 176.146 28.3259 176.337 28.8854 176.337C29.4448 176.337 29.8463 176.146 30.0897 175.765C30.3367 175.38 30.4602 174.808 30.4602 174.048C30.4602 173.289 30.3349 172.722 30.0842 172.348C29.8372 171.97 29.4339 171.781 28.8745 171.781C28.315 171.781 27.9117 171.97 27.6647 172.348C27.4213 172.722 27.2996 173.289 27.2996 174.048ZM36.787 177.051V173.198C36.787 172.726 36.6907 172.372 36.4982 172.136C36.3092 171.899 36.0113 171.781 35.6045 171.781C35.3102 171.781 35.0631 171.829 34.8633 171.923C34.6635 172.017 34.5019 172.157 34.3783 172.343C34.2585 172.528 34.1713 172.755 34.1168 173.024C34.0659 173.293 34.0405 173.601 34.0405 173.95V177.051H33.0487V171.067H33.8552L33.9969 171.874H34.0514C34.1422 171.718 34.2494 171.583 34.3729 171.471C34.5 171.354 34.6381 171.258 34.787 171.182C34.936 171.106 35.094 171.049 35.2611 171.013C35.4283 170.977 35.599 170.958 35.7734 170.958C36.4382 170.958 36.9377 171.133 37.272 171.482C37.6098 171.827 37.7788 172.381 37.7788 173.144V177.051H36.787Z" fill="#252727"/>
<path d="M64.8399 177.051H63.8208V169.978H61.543V169.084H67.1123V169.978H64.8399V177.051ZM71.608 177.051L71.4609 176.25H71.4064C71.3156 176.406 71.2066 176.542 71.0794 176.659C70.9559 176.771 70.8197 176.866 70.6707 176.942C70.5218 177.015 70.3637 177.069 70.1966 177.105C70.0295 177.142 69.8588 177.16 69.6844 177.16C69.3538 177.16 69.0631 177.118 68.8125 177.035C68.5618 176.951 68.3529 176.82 68.1858 176.642C68.0187 176.464 67.8915 176.237 67.8043 175.961C67.7208 175.685 67.679 175.356 67.679 174.975V171.067H68.6708V174.92C68.6708 175.392 68.7671 175.747 68.9596 175.983C69.1522 176.219 69.4501 176.337 69.8533 176.337C70.1476 176.337 70.3946 176.29 70.5944 176.195C70.7942 176.101 70.9541 175.963 71.074 175.781C71.1975 175.596 71.2847 175.369 71.3355 175.1C71.39 174.831 71.4173 174.522 71.4173 174.174V171.067H72.4091V177.051H71.608ZM76.6705 177.16C76.2709 177.16 75.9058 177.093 75.5752 176.958C75.2446 176.824 74.9594 176.628 74.7196 176.37C74.4835 176.112 74.3 175.792 74.1692 175.411C74.0384 175.029 73.973 174.593 73.973 174.103C73.973 173.609 74.033 173.167 74.1529 172.779C74.2728 172.39 74.4417 172.061 74.6597 171.792C74.8776 171.52 75.1374 171.313 75.4389 171.171C75.7441 171.029 76.0801 170.958 76.4471 170.958C76.8067 170.958 77.1301 171.024 77.4171 171.155C77.7041 171.282 77.9475 171.463 78.1473 171.7C78.3471 171.932 78.4997 172.214 78.605 172.544C78.714 172.871 78.7685 173.235 78.7685 173.634V174.25H74.9975C75.0157 174.951 75.1628 175.467 75.4389 175.798C75.7187 176.128 76.1328 176.293 76.6814 176.293C76.8667 176.293 77.0374 176.284 77.1936 176.266C77.3535 176.248 77.5061 176.223 77.6514 176.19C77.8003 176.154 77.9438 176.11 78.0819 176.059C78.2199 176.005 78.3598 175.945 78.5015 175.879V176.762C78.3562 176.831 78.2127 176.891 78.071 176.942C77.9329 176.993 77.7894 177.035 77.6405 177.067C77.4952 177.1 77.3426 177.124 77.1827 177.138C77.0265 177.153 76.8558 177.16 76.6705 177.16ZM76.4253 171.781C76.0111 171.781 75.6823 171.923 75.4389 172.206C75.1992 172.49 75.0593 172.902 75.0193 173.443H77.7004C77.7004 173.196 77.675 172.971 77.6241 172.768C77.5769 172.561 77.5006 172.384 77.3953 172.239C77.2935 172.094 77.1628 171.981 77.0029 171.901C76.8431 171.821 76.6505 171.781 76.4253 171.781Z" fill="#252727"/>
<path d="M108.069 169.084H109.142L110.39 173.749C110.445 173.952 110.497 174.155 110.548 174.359C110.603 174.562 110.652 174.76 110.695 174.953C110.742 175.142 110.782 175.322 110.815 175.492C110.851 175.663 110.88 175.818 110.902 175.956C110.917 175.818 110.935 175.667 110.957 175.503C110.979 175.34 111.004 175.169 111.033 174.991C111.062 174.809 111.093 174.626 111.126 174.441C111.162 174.252 111.2 174.068 111.24 173.89L112.33 169.084H113.414L111.415 177.051H110.39L109.006 171.939C108.955 171.754 108.906 171.563 108.859 171.367C108.812 171.171 108.768 170.988 108.728 170.817C108.684 170.617 108.643 170.423 108.603 170.234C108.563 170.419 108.523 170.612 108.483 170.811C108.446 170.982 108.405 171.169 108.357 171.373C108.314 171.576 108.267 171.776 108.216 171.972L106.897 177.051H105.873L103.769 169.084H104.843L106.058 173.928C106.101 174.096 106.141 174.27 106.178 174.452C106.214 174.63 106.247 174.808 106.276 174.986C106.308 175.164 106.338 175.336 106.363 175.503C106.388 175.667 106.41 175.818 106.428 175.956C106.447 175.821 106.468 175.665 106.494 175.487C106.523 175.309 106.555 175.122 106.592 174.926C106.628 174.729 106.666 174.531 106.706 174.332C106.75 174.128 106.795 173.937 106.842 173.759L108.069 169.084ZM116.608 177.16C116.208 177.16 115.843 177.093 115.512 176.958C115.182 176.824 114.897 176.628 114.657 176.37C114.421 176.112 114.237 175.792 114.107 175.411C113.976 175.029 113.91 174.593 113.91 174.103C113.91 173.609 113.97 173.167 114.09 172.779C114.21 172.39 114.379 172.061 114.597 171.792C114.815 171.52 115.075 171.313 115.376 171.171C115.681 171.029 116.017 170.958 116.384 170.958C116.744 170.958 117.067 171.024 117.354 171.155C117.641 171.282 117.885 171.463 118.085 171.7C118.284 171.932 118.437 172.214 118.542 172.544C118.651 172.871 118.706 173.235 118.706 173.634V174.25H114.935C114.953 174.951 115.1 175.467 115.376 175.798C115.656 176.128 116.07 176.293 116.619 176.293C116.804 176.293 116.975 176.284 117.131 176.266C117.291 176.248 117.443 176.223 117.589 176.19C117.738 176.154 117.881 176.11 118.019 176.059C118.157 176.005 118.297 175.945 118.439 175.879V176.762C118.293 176.831 118.15 176.891 118.008 176.942C117.87 176.993 117.727 177.035 117.578 177.067C117.432 177.1 117.28 177.124 117.12 177.138C116.964 177.153 116.793 177.16 116.608 177.16ZM116.363 171.781C115.948 171.781 115.62 171.923 115.376 172.206C115.136 172.49 114.997 172.902 114.957 173.443H117.638C117.638 173.196 117.612 172.971 117.561 172.768C117.514 172.561 117.438 172.384 117.333 172.239C117.231 172.094 117.1 171.981 116.94 171.901C116.78 171.821 116.588 171.781 116.363 171.781ZM123.91 176.25H123.866C123.786 176.373 123.692 176.491 123.583 176.604C123.478 176.713 123.354 176.809 123.212 176.893C123.074 176.976 122.918 177.042 122.744 177.089C122.569 177.136 122.373 177.16 122.155 177.16C121.817 177.16 121.509 177.094 121.229 176.964C120.949 176.833 120.709 176.639 120.51 176.381C120.31 176.119 120.155 175.796 120.046 175.411C119.937 175.026 119.883 174.579 119.883 174.07C119.883 173.558 119.937 173.109 120.046 172.724C120.155 172.335 120.31 172.01 120.51 171.749C120.709 171.487 120.949 171.291 121.229 171.16C121.509 171.026 121.817 170.958 122.155 170.958C122.37 170.958 122.564 170.982 122.738 171.029C122.913 171.077 123.069 171.14 123.207 171.22C123.349 171.3 123.474 171.393 123.583 171.498C123.692 171.603 123.786 171.714 123.866 171.83H123.932C123.921 171.707 123.91 171.589 123.899 171.476C123.892 171.382 123.885 171.285 123.877 171.187C123.87 171.086 123.866 171.006 123.866 170.948V168.572H124.858V177.051H124.057L123.91 176.25ZM122.346 176.337C122.622 176.337 122.855 176.295 123.044 176.212C123.236 176.128 123.39 176.001 123.507 175.83C123.627 175.659 123.714 175.447 123.768 175.193C123.826 174.935 123.859 174.635 123.866 174.294V174.07C123.866 173.703 123.841 173.378 123.79 173.095C123.743 172.808 123.659 172.568 123.539 172.375C123.423 172.179 123.267 172.032 123.071 171.934C122.875 171.832 122.629 171.781 122.335 171.781C121.845 171.781 121.483 171.979 121.251 172.375C121.022 172.771 120.907 173.34 120.907 174.081C120.907 174.84 121.022 175.407 121.251 175.781C121.483 176.152 121.848 176.337 122.346 176.337Z" fill="#252727"/>
<path d="M152.24 177.051H151.22V169.978H148.943V169.084H154.512V169.978H152.24V177.051ZM159.318 177.051V173.198C159.318 172.726 159.222 172.372 159.029 172.136C158.841 171.899 158.543 171.781 158.136 171.781C157.841 171.781 157.594 171.829 157.395 171.923C157.195 172.017 157.033 172.157 156.91 172.343C156.79 172.528 156.703 172.755 156.648 173.024C156.597 173.293 156.572 173.601 156.572 173.95V177.051H155.58V168.572H156.572V171.089L156.528 171.874H156.583C156.674 171.718 156.781 171.583 156.904 171.471C157.031 171.354 157.169 171.258 157.318 171.182C157.467 171.106 157.625 171.049 157.792 171.013C157.96 170.977 158.13 170.958 158.305 170.958C158.97 170.958 159.469 171.133 159.803 171.482C160.141 171.827 160.31 172.381 160.31 173.144V177.051H159.318ZM166.026 177.051L165.879 176.25H165.825C165.734 176.406 165.625 176.542 165.498 176.659C165.374 176.771 165.238 176.866 165.089 176.942C164.94 177.015 164.782 177.069 164.615 177.105C164.448 177.142 164.277 177.16 164.103 177.16C163.772 177.16 163.482 177.118 163.231 177.035C162.98 176.951 162.771 176.82 162.604 176.642C162.437 176.464 162.31 176.237 162.223 175.961C162.139 175.685 162.097 175.356 162.097 174.975V171.067H163.089V174.92C163.089 175.392 163.186 175.747 163.378 175.983C163.571 176.219 163.869 176.337 164.272 176.337C164.566 176.337 164.813 176.29 165.013 176.195C165.213 176.101 165.373 175.963 165.492 175.781C165.616 175.596 165.703 175.369 165.754 175.1C165.808 174.831 165.836 174.522 165.836 174.174V171.067H166.828V177.051H166.026Z" fill="#252727"/>
<path d="M197.49 177.981H196.477V170.014H200.613V170.908H197.49V173.72H200.406V174.613H197.49V177.981ZM204.411 171.889C204.516 171.889 204.634 171.894 204.765 171.905C204.896 171.912 205.009 171.925 205.103 171.943L204.972 172.859C204.871 172.84 204.765 172.826 204.656 172.815C204.551 172.8 204.451 172.793 204.356 172.793C204.128 172.793 203.919 172.84 203.73 172.935C203.541 173.026 203.377 173.158 203.239 173.333C203.105 173.503 203 173.71 202.923 173.954C202.851 174.194 202.814 174.461 202.814 174.755V177.981H201.823V171.997H202.629L202.749 173.093H202.792C202.883 172.937 202.98 172.786 203.081 172.641C203.187 172.495 203.303 172.368 203.43 172.259C203.561 172.146 203.706 172.057 203.866 171.992C204.026 171.923 204.208 171.889 204.411 171.889ZM207.272 177.981H206.28V171.997H207.272V177.981ZM206.204 170.379C206.204 170.161 206.258 170.003 206.367 169.905C206.48 169.807 206.618 169.758 206.781 169.758C206.861 169.758 206.936 169.771 207.005 169.796C207.078 169.818 207.139 169.854 207.19 169.905C207.245 169.956 207.286 170.021 207.315 170.101C207.348 170.177 207.365 170.27 207.365 170.379C207.365 170.59 207.306 170.748 207.19 170.853C207.078 170.955 206.941 171.006 206.781 171.006C206.618 171.006 206.48 170.955 206.367 170.853C206.258 170.751 206.204 170.593 206.204 170.379Z" fill="#252727"/>
<path d="M242.613 174.92C242.613 175.273 242.55 175.589 242.423 175.868C242.299 176.144 242.121 176.379 241.889 176.571C241.656 176.764 241.373 176.911 241.039 177.013C240.704 177.111 240.328 177.16 239.911 177.16C239.507 177.16 239.129 177.127 238.777 177.062C238.428 177 238.136 176.907 237.9 176.784V175.814C238.023 175.872 238.163 175.93 238.319 175.988C238.479 176.043 238.646 176.092 238.821 176.135C238.995 176.179 239.175 176.215 239.36 176.244C239.545 176.27 239.729 176.283 239.911 176.283C240.492 176.283 240.92 176.174 241.197 175.956C241.476 175.738 241.616 175.425 241.616 175.018C241.616 174.822 241.589 174.651 241.534 174.506C241.484 174.361 241.391 174.228 241.257 174.108C241.126 173.985 240.95 173.867 240.728 173.754C240.506 173.638 240.227 173.512 239.889 173.378C239.565 173.251 239.284 173.113 239.044 172.964C238.808 172.811 238.612 172.641 238.456 172.452C238.303 172.263 238.189 172.048 238.112 171.809C238.04 171.569 238.003 171.296 238.003 170.991C238.003 170.671 238.061 170.386 238.178 170.136C238.294 169.885 238.457 169.674 238.668 169.503C238.879 169.329 239.129 169.197 239.42 169.106C239.714 169.015 240.038 168.969 240.39 168.969C240.822 168.969 241.211 169.011 241.556 169.095C241.901 169.175 242.208 169.278 242.477 169.405L242.112 170.256C241.876 170.15 241.607 170.059 241.306 169.983C241.008 169.903 240.699 169.863 240.379 169.863C239.936 169.863 239.593 169.967 239.349 170.174C239.106 170.377 238.984 170.653 238.984 171.002C238.984 171.209 239.011 171.389 239.066 171.542C239.12 171.691 239.211 171.827 239.338 171.95C239.466 172.07 239.633 172.185 239.84 172.294C240.05 172.399 240.308 172.512 240.614 172.631C240.944 172.762 241.233 172.897 241.48 173.035C241.731 173.173 241.94 173.329 242.107 173.503C242.274 173.678 242.399 173.879 242.483 174.108C242.57 174.337 242.613 174.608 242.613 174.92ZM247.452 177.051L247.251 176.223H247.207C247.087 176.386 246.968 176.528 246.848 176.648C246.728 176.764 246.597 176.86 246.455 176.936C246.314 177.013 246.156 177.069 245.981 177.105C245.807 177.142 245.605 177.16 245.376 177.16C245.126 177.16 244.895 177.124 244.684 177.051C244.473 176.982 244.29 176.875 244.134 176.729C243.981 176.58 243.861 176.395 243.774 176.174C243.687 175.948 243.643 175.683 243.643 175.378C243.643 174.782 243.852 174.324 244.27 174.005C244.691 173.685 245.331 173.511 246.188 173.482L247.191 173.443V173.067C247.191 172.824 247.164 172.621 247.109 172.457C247.058 172.294 246.982 172.163 246.88 172.065C246.782 171.963 246.659 171.89 246.51 171.847C246.364 171.803 246.197 171.781 246.008 171.781C245.707 171.781 245.425 171.825 245.164 171.912C244.906 171.999 244.657 172.105 244.417 172.228L244.068 171.482C244.337 171.336 244.637 171.213 244.968 171.111C245.298 171.009 245.645 170.958 246.008 170.958C246.379 170.958 246.699 170.997 246.968 171.073C247.24 171.146 247.463 171.264 247.638 171.427C247.816 171.587 247.948 171.792 248.036 172.043C248.123 172.294 248.166 172.597 248.166 172.953V177.051H247.452ZM245.632 176.359C245.854 176.359 246.059 176.324 246.248 176.255C246.437 176.186 246.601 176.083 246.739 175.945C246.877 175.803 246.984 175.627 247.06 175.416C247.14 175.202 247.18 174.951 247.18 174.664V174.125L246.401 174.163C246.074 174.177 245.8 174.214 245.578 174.272C245.356 174.33 245.178 174.412 245.044 174.517C244.913 174.619 244.819 174.744 244.761 174.893C244.702 175.038 244.673 175.204 244.673 175.389C244.673 175.723 244.761 175.968 244.935 176.125C245.113 176.281 245.345 176.359 245.632 176.359ZM251.817 176.348C251.883 176.348 251.956 176.344 252.035 176.337C252.119 176.33 252.199 176.321 252.275 176.31C252.352 176.299 252.421 176.286 252.482 176.272C252.548 176.257 252.597 176.244 252.629 176.233V176.986C252.582 177.007 252.522 177.029 252.45 177.051C252.377 177.073 252.297 177.091 252.21 177.105C252.123 177.124 252.032 177.136 251.937 177.144C251.843 177.154 251.75 177.16 251.659 177.16C251.434 177.16 251.225 177.131 251.033 177.073C250.84 177.015 250.673 176.915 250.531 176.773C250.393 176.631 250.284 176.441 250.204 176.201C250.125 175.957 250.085 175.652 250.085 175.285V171.814H249.24V171.373L250.085 170.948L250.51 169.694H251.082V171.067H252.586V171.814H251.082V175.285C251.082 175.638 251.138 175.903 251.251 176.081C251.367 176.259 251.556 176.348 251.817 176.348Z" fill="#252727"/>
<path d="M285.248 174.92C285.248 175.273 285.185 175.589 285.057 175.868C284.934 176.144 284.756 176.379 284.523 176.571C284.291 176.764 284.008 176.911 283.673 177.013C283.339 177.111 282.963 177.16 282.545 177.16C282.142 177.16 281.764 177.127 281.412 177.062C281.063 177 280.771 176.907 280.534 176.784V175.814C280.658 175.872 280.798 175.93 280.954 175.988C281.114 176.043 281.281 176.092 281.455 176.135C281.63 176.179 281.81 176.215 281.995 176.244C282.18 176.27 282.364 176.283 282.545 176.283C283.127 176.283 283.555 176.174 283.831 175.956C284.111 175.738 284.251 175.425 284.251 175.018C284.251 174.822 284.224 174.651 284.169 174.506C284.118 174.361 284.026 174.228 283.891 174.108C283.761 173.985 283.584 173.867 283.363 173.754C283.141 173.638 282.861 173.512 282.524 173.378C282.2 173.251 281.919 173.113 281.679 172.964C281.443 172.811 281.247 172.641 281.09 172.452C280.938 172.263 280.823 172.048 280.747 171.809C280.674 171.569 280.638 171.296 280.638 170.991C280.638 170.671 280.696 170.386 280.812 170.136C280.929 169.885 281.092 169.674 281.303 169.503C281.514 169.329 281.764 169.197 282.055 169.106C282.349 169.015 282.672 168.969 283.025 168.969C283.457 168.969 283.846 169.011 284.191 169.095C284.536 169.175 284.843 169.278 285.112 169.405L284.747 170.256C284.511 170.15 284.242 170.059 283.94 169.983C283.642 169.903 283.334 169.863 283.014 169.863C282.571 169.863 282.227 169.967 281.984 170.174C281.741 170.377 281.619 170.653 281.619 171.002C281.619 171.209 281.646 171.389 281.701 171.542C281.755 171.691 281.846 171.827 281.973 171.95C282.1 172.07 282.267 172.185 282.474 172.294C282.685 172.399 282.943 172.512 283.248 172.631C283.579 172.762 283.868 172.897 284.115 173.035C284.365 173.173 284.574 173.329 284.741 173.503C284.909 173.678 285.034 173.879 285.117 174.108C285.205 174.337 285.248 174.608 285.248 174.92ZM290.589 177.051L290.441 176.25H290.387C290.296 176.406 290.187 176.542 290.06 176.659C289.936 176.771 289.8 176.866 289.651 176.942C289.502 177.015 289.344 177.069 289.177 177.105C289.01 177.142 288.839 177.16 288.665 177.16C288.334 177.16 288.044 177.118 287.793 177.035C287.542 176.951 287.334 176.82 287.166 176.642C286.999 176.464 286.872 176.237 286.785 175.961C286.701 175.685 286.66 175.356 286.66 174.975V171.067H287.651V174.92C287.651 175.392 287.748 175.747 287.94 175.983C288.133 176.219 288.431 176.337 288.834 176.337C289.128 176.337 289.375 176.29 289.575 176.195C289.775 176.101 289.935 175.963 290.055 175.781C290.178 175.596 290.265 175.369 290.316 175.1C290.371 174.831 290.398 174.522 290.398 174.174V171.067H291.39V177.051H290.589ZM297.024 177.051V173.198C297.024 172.726 296.928 172.372 296.736 172.136C296.547 171.899 296.249 171.781 295.842 171.781C295.548 171.781 295.301 171.829 295.101 171.923C294.901 172.017 294.739 172.157 294.616 172.343C294.496 172.528 294.409 172.755 294.354 173.024C294.303 173.293 294.278 173.601 294.278 173.95V177.051H293.286V171.067H294.093L294.234 171.874H294.289C294.38 171.718 294.487 171.583 294.61 171.471C294.737 171.354 294.875 171.258 295.024 171.182C295.173 171.106 295.331 171.049 295.499 171.013C295.666 170.977 295.836 170.958 296.011 170.958C296.676 170.958 297.175 171.133 297.509 171.482C297.847 171.827 298.016 172.381 298.016 173.144V177.051H297.024Z" fill="#252727"/>
<path d="M107.937 20.0321V28.4561H105.885V23.4041L104.001 28.4561H102.345L100.449 23.3921V28.4561H98.3971V20.0321H100.821L103.185 25.8641L105.525 20.0321H107.937ZM112.461 28.5521C111.805 28.5521 111.213 28.4121 110.685 28.1321C110.165 27.8521 109.753 27.4521 109.449 26.9321C109.153 26.4121 109.005 25.8041 109.005 25.1081C109.005 24.4201 109.157 23.8161 109.461 23.2961C109.765 22.7681 110.181 22.3641 110.709 22.0841C111.237 21.8041 111.829 21.6641 112.485 21.6641C113.141 21.6641 113.733 21.8041 114.261 22.0841C114.789 22.3641 115.205 22.7681 115.509 23.2961C115.813 23.8161 115.965 24.4201 115.965 25.1081C115.965 25.7961 115.809 26.4041 115.497 26.9321C115.193 27.4521 114.773 27.8521 114.237 28.1321C113.709 28.4121 113.117 28.5521 112.461 28.5521ZM112.461 26.7761C112.853 26.7761 113.185 26.6321 113.457 26.3441C113.737 26.0561 113.877 25.6441 113.877 25.1081C113.877 24.5721 113.741 24.1601 113.469 23.8721C113.205 23.5841 112.877 23.4401 112.485 23.4401C112.085 23.4401 111.753 23.5841 111.489 23.8721C111.225 24.1521 111.093 24.5641 111.093 25.1081C111.093 25.6441 111.221 26.0561 111.477 26.3441C111.741 26.6321 112.069 26.7761 112.461 26.7761ZM119.777 28.5521C119.193 28.5521 118.673 28.4521 118.217 28.2521C117.761 28.0521 117.401 27.7801 117.137 27.4361C116.873 27.0841 116.725 26.6921 116.693 26.2601H118.721C118.745 26.4921 118.853 26.6801 119.045 26.8241C119.237 26.9681 119.473 27.0401 119.753 27.0401C120.009 27.0401 120.205 26.9921 120.341 26.8961C120.485 26.7921 120.557 26.6601 120.557 26.5001C120.557 26.3081 120.457 26.1681 120.257 26.0801C120.057 25.9841 119.733 25.8801 119.285 25.7681C118.805 25.6561 118.405 25.5401 118.085 25.4201C117.765 25.2921 117.489 25.0961 117.257 24.8321C117.025 24.5601 116.909 24.1961 116.909 23.7401C116.909 23.3561 117.013 23.0081 117.221 22.6961C117.437 22.3761 117.749 22.1241 118.157 21.9401C118.573 21.7561 119.065 21.6641 119.633 21.6641C120.473 21.6641 121.133 21.8721 121.613 22.2881C122.101 22.7041 122.381 23.2561 122.453 23.9441H120.557C120.525 23.7121 120.421 23.5281 120.245 23.3921C120.077 23.2561 119.853 23.1881 119.573 23.1881C119.333 23.1881 119.149 23.2361 119.021 23.3321C118.893 23.4201 118.829 23.5441 118.829 23.7041C118.829 23.8961 118.929 24.0401 119.129 24.1361C119.337 24.2321 119.657 24.3281 120.089 24.4241C120.585 24.5521 120.989 24.6801 121.301 24.8081C121.613 24.9281 121.885 25.1281 122.117 25.4081C122.357 25.6801 122.481 26.0481 122.489 26.5121C122.489 26.9041 122.377 27.2561 122.153 27.5681C121.937 27.8721 121.621 28.1121 121.205 28.2881C120.797 28.4641 120.321 28.5521 119.777 28.5521ZM127.477 26.7161V28.4561H126.433C125.689 28.4561 125.109 28.2761 124.693 27.9161C124.277 27.5481 124.069 26.9521 124.069 26.1281V23.4641H123.253V21.7601H124.069V20.1281H126.121V21.7601H127.465V23.4641H126.121V26.1521C126.121 26.3521 126.169 26.4961 126.265 26.5841C126.361 26.6721 126.521 26.7161 126.745 26.7161H127.477ZM136.407 26.9681H133.263L132.759 28.4561H130.611L133.659 20.0321H136.035L139.083 28.4561H136.911L136.407 26.9681ZM135.879 25.3841L134.835 22.3001L133.803 25.3841H135.879ZM139.602 25.1081C139.602 24.4121 139.742 23.8041 140.022 23.2841C140.31 22.7641 140.706 22.3641 141.21 22.0841C141.722 21.8041 142.306 21.6641 142.962 21.6641C143.802 21.6641 144.502 21.8841 145.062 22.3241C145.63 22.7641 146.002 23.3841 146.178 24.1841H143.994C143.81 23.6721 143.454 23.4161 142.926 23.4161C142.55 23.4161 142.25 23.5641 142.026 23.8601C141.802 24.1481 141.69 24.5641 141.69 25.1081C141.69 25.6521 141.802 26.0721 142.026 26.3681C142.25 26.6561 142.55 26.8001 142.926 26.8001C143.454 26.8001 143.81 26.5441 143.994 26.0321H146.178C146.002 26.8161 145.63 27.4321 145.062 27.8801C144.494 28.3281 143.794 28.5521 142.962 28.5521C142.306 28.5521 141.722 28.4121 141.21 28.1321C140.706 27.8521 140.31 27.4521 140.022 26.9321C139.742 26.4121 139.602 25.8041 139.602 25.1081ZM151.008 26.7161V28.4561H149.964C149.22 28.4561 148.64 28.2761 148.224 27.9161C147.808 27.5481 147.6 26.9521 147.6 26.1281V23.4641H146.784V21.7601H147.6V20.1281H149.652V21.7601H150.996V23.4641H149.652V26.1521C149.652 26.3521 149.7 26.4961 149.796 26.5841C149.892 26.6721 150.052 26.7161 150.276 26.7161H151.008ZM153.183 21.0641C152.823 21.0641 152.527 20.9601 152.295 20.7521C152.071 20.5361 151.959 20.2721 151.959 19.9601C151.959 19.6401 152.071 19.3761 152.295 19.1681C152.527 18.9521 152.823 18.8441 153.183 18.8441C153.535 18.8441 153.823 18.9521 154.047 19.1681C154.279 19.3761 154.395 19.6401 154.395 19.9601C154.395 20.2721 154.279 20.5361 154.047 20.7521C153.823 20.9601 153.535 21.0641 153.183 21.0641ZM154.203 21.7601V28.4561H152.151V21.7601H154.203ZM158.702 26.5361L160.154 21.7601H162.338L159.962 28.4561H157.43L155.054 21.7601H157.25L158.702 26.5361ZM169.514 25.0001C169.514 25.1921 169.502 25.3921 169.478 25.6001H164.834C164.866 26.0161 164.998 26.3361 165.23 26.5601C165.47 26.7761 165.762 26.8841 166.106 26.8841C166.618 26.8841 166.974 26.6681 167.174 26.2361H169.358C169.246 26.6761 169.042 27.0721 168.746 27.4241C168.458 27.7761 168.094 28.0521 167.654 28.2521C167.214 28.4521 166.722 28.5521 166.178 28.5521C165.522 28.5521 164.938 28.4121 164.426 28.1321C163.914 27.8521 163.514 27.4521 163.226 26.9321C162.938 26.4121 162.794 25.8041 162.794 25.1081C162.794 24.4121 162.934 23.8041 163.214 23.2841C163.502 22.7641 163.902 22.3641 164.414 22.0841C164.926 21.8041 165.514 21.6641 166.178 21.6641C166.826 21.6641 167.402 21.8001 167.906 22.0721C168.41 22.3441 168.802 22.7321 169.082 23.2361C169.37 23.7401 169.514 24.3281 169.514 25.0001ZM167.414 24.4601C167.414 24.1081 167.294 23.8281 167.054 23.6201C166.814 23.4121 166.514 23.3081 166.154 23.3081C165.81 23.3081 165.518 23.4081 165.278 23.6081C165.046 23.8081 164.902 24.0921 164.846 24.4601H167.414ZM171.556 28.5521C171.196 28.5521 170.9 28.4481 170.668 28.2401C170.444 28.0241 170.332 27.7601 170.332 27.4481C170.332 27.1281 170.444 26.8601 170.668 26.6441C170.9 26.4281 171.196 26.3201 171.556 26.3201C171.908 26.3201 172.196 26.4281 172.42 26.6441C172.652 26.8601 172.768 27.1281 172.768 27.4481C172.768 27.7601 172.652 28.0241 172.42 28.2401C172.196 28.4481 171.908 28.5521 171.556 28.5521ZM171.556 23.6681C171.196 23.6681 170.9 23.5641 170.668 23.3561C170.444 23.1401 170.332 22.8761 170.332 22.5641C170.332 22.2441 170.444 21.9761 170.668 21.7601C170.9 21.5441 171.196 21.4361 171.556 21.4361C171.908 21.4361 172.196 21.5441 172.42 21.7601C172.652 21.9761 172.768 22.2441 172.768 22.5641C172.768 22.8761 172.652 23.1401 172.42 23.3561C172.196 23.5641 171.908 23.6681 171.556 23.6681Z" fill="#252727" fill-opacity="0.5"/>
<path d="M185.461 20.0321V21.6761H182.029V23.4521H184.597V25.0481H182.029V28.4561H179.977V20.0321H185.461ZM188.592 22.8761C188.832 22.5081 189.132 22.2201 189.492 22.0121C189.852 21.7961 190.252 21.6881 190.692 21.6881V23.8601H190.128C189.616 23.8601 189.232 23.9721 188.976 24.1961C188.72 24.4121 188.592 24.7961 188.592 25.3481V28.4561H186.54V21.7601H188.592V22.8761ZM192.705 21.0641C192.345 21.0641 192.049 20.9601 191.817 20.7521C191.593 20.5361 191.481 20.2721 191.481 19.9601C191.481 19.6401 191.593 19.3761 191.817 19.1681C192.049 18.9521 192.345 18.8441 192.705 18.8441C193.057 18.8441 193.345 18.9521 193.569 19.1681C193.801 19.3761 193.917 19.6401 193.917 19.9601C193.917 20.2721 193.801 20.5361 193.569 20.7521C193.345 20.9601 193.057 21.0641 192.705 21.0641ZM193.725 21.7601V28.4561H191.673V21.7601H193.725ZM194.804 25.0961C194.804 24.4081 194.932 23.8041 195.188 23.2841C195.452 22.7641 195.808 22.3641 196.256 22.0841C196.704 21.8041 197.204 21.6641 197.756 21.6641C198.196 21.6641 198.596 21.7561 198.956 21.9401C199.324 22.1241 199.612 22.3721 199.82 22.6841V19.5761H201.872V28.4561H199.82V27.4961C199.628 27.8161 199.352 28.0721 198.992 28.2641C198.64 28.4561 198.228 28.5521 197.756 28.5521C197.204 28.5521 196.704 28.4121 196.256 28.1321C195.808 27.8441 195.452 27.4401 195.188 26.9201C194.932 26.3921 194.804 25.7841 194.804 25.0961ZM199.82 25.1081C199.82 24.5961 199.676 24.1921 199.388 23.8961C199.108 23.6001 198.764 23.4521 198.356 23.4521C197.948 23.4521 197.6 23.6001 197.312 23.8961C197.032 24.1841 196.892 24.5841 196.892 25.0961C196.892 25.6081 197.032 26.0161 197.312 26.3201C197.6 26.6161 197.948 26.7641 198.356 26.7641C198.764 26.7641 199.108 26.6161 199.388 26.3201C199.676 26.0241 199.82 25.6201 199.82 25.1081ZM202.948 25.0961C202.948 24.4081 203.076 23.8041 203.332 23.2841C203.596 22.7641 203.952 22.3641 204.4 22.0841C204.848 21.8041 205.348 21.6641 205.9 21.6641C206.372 21.6641 206.784 21.7601 207.136 21.9521C207.496 22.1441 207.772 22.3961 207.964 22.7081V21.7601H210.016V28.4561H207.964V27.5081C207.764 27.8201 207.484 28.0721 207.124 28.2641C206.772 28.4561 206.36 28.5521 205.888 28.5521C205.344 28.5521 204.848 28.4121 204.4 28.1321C203.952 27.8441 203.596 27.4401 203.332 26.9201C203.076 26.3921 202.948 25.7841 202.948 25.0961ZM207.964 25.1081C207.964 24.5961 207.82 24.1921 207.532 23.8961C207.252 23.6001 206.908 23.4521 206.5 23.4521C206.092 23.4521 205.744 23.6001 205.456 23.8961C205.176 24.1841 205.036 24.5841 205.036 25.0961C205.036 25.6081 205.176 26.0161 205.456 26.3201C205.744 26.6161 206.092 26.7641 206.5 26.7641C206.908 26.7641 207.252 26.6161 207.532 26.3201C207.82 26.0241 207.964 25.6201 207.964 25.1081ZM218.341 21.7601L214.141 31.6361H211.933L213.469 28.2281L210.745 21.7601H213.037L214.585 25.9481L216.121 21.7601H218.341Z" fill="#252726"/>
<line y1="161.238" x2="319" y2="161.238" stroke="black" stroke-width="0.465015"/>
</svg>
