<svg width="20" height="20" viewBox="0 0 20 20" fill="none" xmlns="http://www.w3.org/2000/svg">
<path d="M19.2861 18.5789L19.2865 18.5794C19.304 18.5969 19.3262 18.6088 19.3505 18.6137C19.3747 18.6185 19.3999 18.6161 19.4228 18.6066C19.4456 18.5972 19.4651 18.5812 19.4789 18.5606L19.8945 18.8386L19.4789 18.5606C19.4926 18.5401 19.5 18.5159 19.5 18.4913L19.2861 18.5789ZM19.2861 18.5789L15.7199 15.0127C15.7198 15.0127 15.7198 15.0127 15.7198 15.0127C15.3917 14.6845 14.9467 14.5001 14.4826 14.5H14.4825M19.2861 18.5789L14.4825 14.5M14.4825 14.5H2.5C1.96957 14.5 1.46086 14.2893 1.08579 13.9142C0.710714 13.5391 0.5 13.0304 0.5 12.5V2.5C0.5 1.96957 0.710714 1.46086 1.08579 1.08579C1.46086 0.710714 1.96957 0.5 2.5 0.5H17.5C18.0304 0.5 18.5391 0.710714 18.9142 1.08579M14.4825 14.5L18.9142 1.08579M18.9142 1.08579C19.2893 1.46086 19.5 1.96957 19.5 2.5M18.9142 1.08579L19.5 2.5M19.5 2.5V18.4911V2.5ZM1.26256 13.7374L1.61612 13.3839L1.26256 13.7374C1.59075 14.0656 2.03587 14.25 2.5 14.25H14.4824C14.4824 14.25 14.4825 14.25 14.4825 14.25C15.0129 14.2501 15.5214 14.4609 15.8964 14.836L15.8964 14.8361L18.3964 17.3361L19.25 18.1896V16.9825V2.5C19.25 2.03587 19.0656 1.59075 18.7374 1.26256C18.4092 0.934374 17.9641 0.75 17.5 0.75H2.5C2.03587 0.75 1.59075 0.934374 1.26256 1.26256C0.934374 1.59075 0.75 2.03587 0.75 2.5V12.5C0.75 12.9641 0.934375 13.4092 1.26256 13.7374Z" fill="#5EAFA1" stroke="#5EAFA1"/>
<path d="M4.25 4.375C4.25 4.34185 4.26317 4.31005 4.28661 4.28661C4.31005 4.26317 4.34185 4.25 4.375 4.25H15.625C15.6582 4.25 15.6899 4.26317 15.7134 4.28661C15.7368 4.31005 15.75 4.34185 15.75 4.375C15.75 4.40815 15.7368 4.43995 15.7134 4.46339C15.6899 4.48683 15.6582 4.5 15.625 4.5H4.375C4.34185 4.5 4.31005 4.48683 4.28661 4.46339C4.26317 4.43995 4.25 4.40815 4.25 4.375ZM4.25 7.5C4.25 7.46685 4.26317 7.43505 4.28661 7.41161C4.31005 7.38817 4.34185 7.375 4.375 7.375H15.625C15.6582 7.375 15.6899 7.38817 15.7134 7.41161C15.7368 7.43505 15.75 7.46685 15.75 7.5C15.75 7.53315 15.7368 7.56495 15.7134 7.58839C15.6899 7.61183 15.6582 7.625 15.625 7.625H4.375C4.34185 7.625 4.31005 7.61183 4.28661 7.58839C4.26317 7.56495 4.25 7.53315 4.25 7.5ZM4.25 10.625C4.25 10.5918 4.26317 10.5601 4.28661 10.5366C4.31005 10.5132 4.34185 10.5 4.375 10.5H10.625C10.6582 10.5 10.6899 10.5132 10.7134 10.5366C10.7368 10.5601 10.75 10.5918 10.75 10.625C10.75 10.6582 10.7368 10.6899 10.7134 10.7134C10.6899 10.7368 10.6582 10.75 10.625 10.75H4.375C4.34185 10.75 4.31005 10.7368 4.28661 10.7134C4.26317 10.6899 4.25 10.6582 4.25 10.625Z" fill="#5EAFA1" stroke="#5EAFA1"/>
</svg>
