<svg width="25" height="24" viewBox="0 0 25 24" fill="none" xmlns="http://www.w3.org/2000/svg">
<path d="M17.0787 17.5631H22.2547V15.4928C22.2547 14.8473 22.0535 14.218 21.6793 13.6922C21.305 13.1663 20.7763 12.7702 20.1665 12.5587C19.5567 12.3473 18.8961 12.3311 18.2767 12.5124C17.6573 12.6937 17.1098 13.0635 16.7102 13.5704M17.0787 17.5631H6.72676M17.0787 17.5631V15.4928C17.0787 14.8137 16.9483 14.1646 16.7102 13.5704M16.7102 13.5704C16.3258 12.6097 15.6623 11.7862 14.8054 11.2061C13.9485 10.6261 12.9375 10.316 11.9027 10.316C10.868 10.316 9.85695 10.6261 9.00006 11.2061C8.14317 11.7862 7.47972 12.6097 7.09529 13.5704M6.72676 17.5631H1.55078V15.4928C1.55083 14.8473 1.75196 14.218 2.12621 13.6922C2.50046 13.1663 3.02923 12.7702 3.63903 12.5587C4.24883 12.3473 4.90935 12.3311 5.52877 12.5124C6.14819 12.6937 6.69574 13.0635 7.09529 13.5704M6.72676 17.5631V15.4928C6.72676 14.8137 6.8572 14.1646 7.09529 13.5704M15.0083 4.10559C15.0083 4.92924 14.6811 5.71916 14.0987 6.30157C13.5163 6.88399 12.7264 7.21118 11.9027 7.21118C11.0791 7.21118 10.2892 6.88399 9.70676 6.30157C9.12435 5.71916 8.79716 4.92924 8.79716 4.10559C8.79716 3.28194 9.12435 2.49202 9.70676 1.90961C10.2892 1.3272 11.0791 1 11.9027 1C12.7264 1 13.5163 1.3272 14.0987 1.90961C14.6811 2.49202 15.0083 3.28194 15.0083 4.10559ZM23.2899 20.6687C23.2899 21.2178 23.0718 21.7445 22.6835 22.1327C22.2952 22.521 21.7686 22.7391 21.2195 22.7391C20.6704 22.7391 20.1438 22.521 19.7555 22.1327C19.3673 21.7445 19.1491 21.2178 19.1491 20.6687C19.1491 20.1196 19.3673 19.593 19.7555 19.2047C20.1438 18.8165 20.6704 18.5983 21.2195 18.5983C21.7686 18.5983 22.2952 18.8165 22.6835 19.2047C23.0718 19.593 23.2899 20.1196 23.2899 20.6687ZM6.72676 7.21118C6.72676 7.76028 6.50863 8.28689 6.12036 8.67517C5.73209 9.06344 5.20547 9.28157 4.65637 9.28157C4.10727 9.28157 3.58066 9.06344 3.19238 8.67517C2.80411 8.28689 2.58598 7.76028 2.58598 7.21118C2.58598 6.66208 2.80411 6.13547 3.19238 5.74719C3.58066 5.35892 4.10727 5.14079 4.65637 5.14079C5.20547 5.14079 5.73209 5.35892 6.12036 5.74719C6.50863 6.13547 6.72676 6.66208 6.72676 7.21118Z" stroke="#5EAFA1" stroke-width="1.62922" stroke-linecap="round" stroke-linejoin="round"/>
</svg>
