<svg width="41" height="40" viewBox="0 0 41 40" fill="none" xmlns="http://www.w3.org/2000/svg">
<g clip-path="url(#clip0_1_5956)">
<path d="M40.4092 20C40.4092 8.95438 31.4548 0 20.4092 0C9.36355 0 0.40918 8.95422 0.40918 20C0.40918 29.9825 7.72293 38.2567 17.2842 39.757V25.7813H12.2061V20H17.2842V15.5938C17.2842 10.5813 20.2701 7.8125 24.8384 7.8125C27.0267 7.8125 29.3154 8.20313 29.3154 8.20313V13.125H26.7936C24.3089 13.125 23.5342 14.6667 23.5342 16.2484V20H29.0811L28.1943 25.7813H23.5342V39.757C33.0954 38.2567 40.4092 29.9827 40.4092 20Z" fill="#1877F2"/>
<path d="M28.1943 25.7812L29.0811 20H23.5342V16.2484C23.5342 14.6666 24.309 13.125 26.7936 13.125H29.3154V8.20312C29.3154 8.20312 27.0267 7.8125 24.8384 7.8125C20.2701 7.8125 17.2842 10.5813 17.2842 15.5938V20H12.2061V25.7812H17.2842V39.757C18.318 39.919 19.3628 40.0003 20.4092 40C21.4556 40.0003 22.5004 39.9191 23.5342 39.757V25.7812H28.1943Z" fill="white"/>
</g>
<defs>
<clipPath id="clip0_1_5956">
<rect width="40" height="40" fill="white" transform="translate(0.40918)"/>
</clipPath>
</defs>
</svg>
