<svg width="24" height="24" viewBox="0 0 24 24" fill="none" xmlns="http://www.w3.org/2000/svg">
<g clip-path="url(#clip0_1_5072)">
<path d="M2.66667 3.33331C1.95942 3.33331 1.28115 3.61426 0.781049 4.11436C0.280952 4.61446 0 5.29274 0 5.99998L0 18C0 18.7072 0.280952 19.3855 0.781049 19.8856C1.28115 20.3857 1.95942 20.6666 2.66667 20.6666H8V3.33331H2.66667Z" fill="#009A49"/>
<path d="M8 3.33331H16V20.6666H8V3.33331Z" fill="#EEEEEE"/>
<path d="M21.3333 3.33331H16V20.6666H21.3333C22.0406 20.6666 22.7189 20.3857 23.219 19.8856C23.719 19.3855 24 18.7072 24 18V5.99998C24 5.29274 23.719 4.61446 23.219 4.11436C22.7189 3.61426 22.0406 3.33331 21.3333 3.33331Z" fill="#009A49"/>
</g>
<defs>
<clipPath id="clip0_1_5072">
<rect width="24" height="24" fill="white"/>
</clipPath>
</defs>
</svg>
