<svg width="20" height="20" viewBox="0 0 20 20" fill="none" xmlns="http://www.w3.org/2000/svg">
<path d="M15.9984 19.1668H16.4984V18.6668V10.2081L16.8316 9.87495V18.6668C16.8316 18.8878 16.7438 19.0997 16.5875 19.256C16.4313 19.4122 16.2193 19.5 15.9984 19.5H1.3332C1.11222 19.5 0.900292 19.4122 0.744038 19.256C0.587783 19.0997 0.5 18.8878 0.5 18.6668V4.00165C0.5 3.78068 0.587783 3.56875 0.744038 3.41249C0.900292 3.25624 1.11222 3.16846 1.3332 3.16846H10.2717L9.93852 3.50165H1.3332H0.833197V4.00165V18.6668V19.1668H1.3332H15.9984Z" fill="#0F120F" stroke="#5EAFA1"/>
<path d="M19.3311 2.91537L19.3316 2.91585C19.385 2.9691 19.4273 3.03237 19.4562 3.10201C19.4851 3.17166 19.5 3.24633 19.5 3.32174C19.5 3.39715 19.4851 3.47182 19.4562 3.54147C19.4273 3.61111 19.385 3.67437 19.3316 3.72762L19.3294 3.72978L10.314 12.8309L7.25494 13.5057C7.21687 13.5085 7.17862 13.5078 7.14065 13.5036L7.11459 13.5008L7.08836 13.5007C7.00366 13.5002 6.9201 13.4811 6.8437 13.4445C6.7673 13.4079 6.69994 13.3549 6.64649 13.2892C6.59304 13.2235 6.55481 13.1467 6.53457 13.0645L6.04906 13.184L6.53456 13.0645C6.51477 12.984 6.51263 12.9003 6.52829 12.819L7.23441 9.75916L16.2724 0.668449C16.2725 0.668349 16.2726 0.668249 16.2727 0.66815C16.3259 0.614895 16.389 0.572636 16.4585 0.543784C16.5282 0.514879 16.6029 0.5 16.6783 0.5C16.7537 0.5 16.8283 0.514879 16.898 0.543784C16.9676 0.57269 17.0309 0.615054 17.0842 0.668449L17.0846 0.668933L19.3311 2.91537ZM9.98034 12.5424L10.1235 12.5107L10.2269 12.4067L17.1128 5.48075L17.4643 5.1272L17.1118 4.77467L15.232 2.89486L14.8773 2.54011L14.5237 2.89606L7.64441 9.82201L7.54461 9.92249L7.51233 10.0604L6.94572 12.4801L6.76449 13.2541L7.54059 13.0823L9.98034 12.5424ZM17.158 4.72852L17.5104 5.08094L17.8639 4.72965L18.9105 3.68975L19.2663 3.3362L18.9116 2.98152L17.0185 1.08838L16.6615 0.731419L16.308 1.09178L15.2748 2.14501L14.928 2.49853L15.2782 2.84871L17.158 4.72852Z" fill="#0F120F" stroke="#5EAFA1"/>
</svg>
