<svg width="45" height="44" viewBox="0 0 45 44" fill="none" xmlns="http://www.w3.org/2000/svg">
<path d="M40.386 18.4094H38.9093V18.3333H22.4093V25.6667H32.7703C31.2588 29.9356 27.197 33 22.4093 33C16.3345 33 11.4093 28.0747 11.4093 22C11.4093 15.9252 16.3345 11 22.4093 11C25.2133 11 27.7644 12.0578 29.7068 13.7857L34.8924 8.60016C31.6181 5.54857 27.2383 3.66666 22.4093 3.66666C12.2847 3.66666 4.07593 11.8754 4.07593 22C4.07593 32.1246 12.2847 40.3333 22.4093 40.3333C32.5338 40.3333 40.7426 32.1246 40.7426 22C40.7426 20.7707 40.6161 19.5708 40.386 18.4094Z" fill="#FFC107"/>
<path d="M6.1897 13.4667L12.2131 17.8842C13.8429 13.849 17.7901 11 22.4092 11C25.2133 11 27.7644 12.0578 29.7068 13.7857L34.8924 8.60016C31.618 5.54857 27.2382 3.66666 22.4092 3.66666C15.3674 3.66666 9.26053 7.64224 6.1897 13.4667Z" fill="#FF3D00"/>
<path d="M22.4091 40.3333C27.1446 40.3333 31.4475 38.5211 34.7007 35.574L29.0266 30.7725C27.1241 32.2193 24.7993 33.0019 22.4091 33C17.6406 33 13.5917 29.9594 12.0664 25.7162L6.08789 30.3224C9.12206 36.2597 15.2839 40.3333 22.4091 40.3333Z" fill="#4CAF50"/>
<path d="M40.3859 18.4094H38.9092V18.3333H22.4092V25.6667H32.7703C32.0472 27.6984 30.7448 29.4738 29.0238 30.7734L29.0266 30.7716L34.7008 35.5731C34.2993 35.9379 40.7425 31.1667 40.7425 22C40.7425 20.7708 40.616 19.5708 40.3859 18.4094Z" fill="#1976D2"/>
</svg>
