<svg width="20" height="17" viewBox="0 0 20 17" fill="none" xmlns="http://www.w3.org/2000/svg">
<path d="M18.2021 7.23248H3.98983L8.33979 1.97797C8.54319 1.73186 8.64105 1.41456 8.61183 1.09589C8.58262 0.777211 8.42872 0.483259 8.184 0.278696C7.93928 0.0741339 7.62378 -0.0242819 7.30691 0.00509964C6.99004 0.0344812 6.69775 0.189253 6.49435 0.435368L0.502668 7.66634C0.462357 7.72385 0.426309 7.78427 0.394818 7.84711C0.394818 7.90737 0.394818 7.94352 0.310935 8.00378C0.256618 8.14196 0.228179 8.28906 0.227051 8.43764C0.228179 8.58622 0.256618 8.73332 0.310935 8.8715C0.310935 8.93176 0.310934 8.96791 0.394818 9.02817C0.426309 9.09101 0.462357 9.15143 0.502668 9.20895L6.49435 16.4399C6.60702 16.576 6.74811 16.6854 6.90759 16.7603C7.06707 16.8353 7.24102 16.8741 7.41707 16.8738C7.69706 16.8743 7.96841 16.7763 8.184 16.5966C8.30534 16.4954 8.40565 16.3712 8.47917 16.2309C8.55269 16.0907 8.59798 15.9373 8.61245 15.7795C8.62692 15.6216 8.61029 15.4624 8.5635 15.3111C8.51671 15.1597 8.44069 15.0191 8.33979 14.8973L3.98983 9.6428H18.2021C18.5199 9.6428 18.8247 9.51583 19.0494 9.28982C19.2742 9.06381 19.4004 8.75727 19.4004 8.43764C19.4004 8.11801 19.2742 7.81147 19.0494 7.58546C18.8247 7.35945 18.5199 7.23248 18.2021 7.23248Z" fill="#5EAFA1"/>
</svg>
