<svg width="20" height="20" viewBox="0 0 20 20" fill="none" xmlns="http://www.w3.org/2000/svg">
<path d="M10.9444 18.5889V15.5H11.9444C16.0561 15.5 19.3889 12.1673 19.3889 8.05556C19.3889 3.94386 16.0561 0.611111 11.9444 0.611111H8.05556C3.94386 0.611111 0.611111 3.94386 0.611111 8.05556C0.611111 12.7676 3.31476 15.5843 6.09239 17.2541L6.09244 17.2541C7.48376 18.0903 8.88069 18.6281 9.93194 18.9567L9.93245 18.9568C10.0619 18.9971 10.1867 19.0348 10.3052 19.0691L10.9444 19.2544V18.5889ZM11.0556 16.1111V19.3825C10.9164 19.3493 10.7552 19.3088 10.5752 19.2602C9.15864 18.8763 6.62298 17.9983 4.45062 16.247C2.29295 14.5075 0.5 11.9154 0.5 8.05556C0.5 3.88281 3.88281 0.5 8.05556 0.5H11.9444C16.1172 0.5 19.5 3.88281 19.5 8.05556C19.5 12.2283 16.1172 15.6111 11.9444 15.6111H11.5556H11.0556V16.1111Z" fill="#0F120F" stroke="#5EAFA1"/>
<path d="M11.774 4.01761L11.7735 4.01724C11.3265 3.71957 10.7472 3.57548 10.1766 3.55751L10.1762 3.55749C9.60452 3.5391 9.00788 3.64633 8.51459 3.88587L8.51423 3.88604C8.02006 4.12551 7.5982 4.51502 7.45493 5.07152C7.44404 5.11393 7.44162 5.15807 7.44779 5.20141C7.45396 5.24476 7.4686 5.28646 7.49089 5.32414C7.51318 5.36183 7.54267 5.39475 7.57769 5.42104L7.27805 5.82016L7.57769 5.42104C7.6127 5.44733 7.65255 5.46646 7.69496 5.47735C7.73736 5.48823 7.7815 5.49066 7.82484 5.48449L7.89532 5.9795L7.82484 5.48449C7.86819 5.47832 7.9099 5.46367 7.94758 5.44138L8.20212 5.87174L7.94758 5.44138C7.98526 5.41909 8.01819 5.3896 8.04447 5.35459L8.44433 5.65478L8.04447 5.35459C8.07072 5.31963 8.08983 5.27985 8.10073 5.23752L11.774 4.01761ZM11.774 4.01761C12.2325 4.32207 12.554 4.79345 12.554 5.42331C12.554 6.1502 12.2699 6.63324 11.8459 6.92595C11.6652 7.04803 11.4659 7.13993 11.2557 7.19807L10.889 7.2995M11.774 4.01761L10.889 7.2995M10.889 7.2995V7.67998M10.889 7.2995V7.67998M10.889 7.67998V8.53109C10.889 8.61949 10.8538 8.70428 10.7913 8.76679C10.7288 8.8293 10.644 8.86442 10.5556 8.86442C10.4672 8.86442 10.3824 8.8293 10.3199 8.76679C10.2574 8.70428 10.2223 8.61949 10.2223 8.53109V6.9772V6.97709M10.889 7.67998L10.2223 6.97709M10.2223 6.97709C10.2223 6.89251 10.2544 6.8111 10.3122 6.74933M10.2223 6.97709L10.3122 6.74933M11.4042 4.57163L11.4052 4.57228C11.5436 4.66457 11.6721 4.78166 11.7626 4.93839C11.8557 5.09992 11.8873 5.26672 11.8873 5.42275C11.8873 5.69481 11.8356 5.89244 11.7623 6.03914C11.6936 6.17709 11.5902 6.29476 11.4622 6.38059C11.2092 6.55387 10.8669 6.62214 10.5334 6.64442L11.4042 4.57163ZM11.4042 4.57163C11.0885 4.36222 10.6407 4.23953 10.1556 4.22412L11.4042 4.57163ZM8.80463 4.48566L8.80498 4.48549C9.18634 4.30087 9.6727 4.20866 10.1554 4.22412L8.80463 4.48566ZM8.80463 4.48566C8.42019 4.67215 8.17881 4.93289 8.10078 5.23732L8.80463 4.48566ZM10.3122 6.74933C10.3699 6.68756 10.449 6.65006 10.5334 6.64442L10.3122 6.74933ZM8.29619 3.43609C8.87397 3.15553 9.55341 3.0372 10.1923 3.05775L8.29619 3.43609Z" fill="#0F120F" stroke="#5EAFA1"/>
<path d="M10.9877 12.0988L11.2907 12.4018L10.9877 12.0988C10.8731 12.2134 10.7176 12.2778 10.5556 12.2778C10.3935 12.2778 10.2381 12.2134 10.1234 12.0988C10.0088 11.9842 9.94446 11.8287 9.94446 11.6667C9.94446 11.5046 10.0088 11.3491 10.1234 11.2345C10.2381 11.1199 10.3935 11.0555 10.5556 11.0555C10.7176 11.0555 10.8731 11.1199 10.9877 11.2345C11.1023 11.3491 11.1667 11.5046 11.1667 11.6667C11.1667 11.8287 11.1023 11.9842 10.9877 12.0988Z" fill="#0F120F" stroke="#5EAFA1"/>
</svg>
