<svg width="22" height="22" viewBox="0 0 22 22" fill="none" xmlns="http://www.w3.org/2000/svg">
<mask id="path-1-inside-1_301_9218" fill="white">
<path fill-rule="evenodd" clip-rule="evenodd" d="M11.4442 0L21.7391 9.99104L20.5899 11.2141L18.955 9.63619V20.8778L18.1456 21.7391H13.2895L12.4802 20.8778V14.8488H9.24277V20.8778L8.43342 21.7391H3.57733L2.76798 20.8778V9.64997L1.14928 11.2141L0 9.99104L10.2787 0H11.4442ZM4.38667 8.08413V20.0165H7.62407V13.9875L8.43342 13.1262H13.2895L14.0989 13.9875V20.0165H17.3363V8.0738L10.8615 1.82595L4.38667 8.08413Z"/>
</mask>
<path fill-rule="evenodd" clip-rule="evenodd" d="M11.4442 0L21.7391 9.99104L20.5899 11.2141L18.955 9.63619V20.8778L18.1456 21.7391H13.2895L12.4802 20.8778V14.8488H9.24277V20.8778L8.43342 21.7391H3.57733L2.76798 20.8778V9.64997L1.14928 11.2141L0 9.99104L10.2787 0H11.4442ZM4.38667 8.08413V20.0165H7.62407V13.9875L8.43342 13.1262H13.2895L14.0989 13.9875V20.0165H17.3363V8.0738L10.8615 1.82595L4.38667 8.08413Z" fill="white"/>
<path d="M11.4442 0L34.1541 -23.4006L24.6659 -32.6087H11.4442V0ZM21.7391 9.99104L45.5024 32.3211L67.4757 8.93747L44.449 -13.4096L21.7391 9.99104ZM20.5899 11.2141L-2.0554 34.6772L21.723 57.6268L44.3532 33.5442L20.5899 11.2141ZM18.955 9.63619L41.6002 -13.827L-13.6537 -67.1548V9.63619H18.955ZM18.955 20.8778L42.7183 43.2079L51.5637 33.7948V20.8778H18.955ZM18.1456 21.7391V54.3478H32.2502L41.9089 44.0692L18.1456 21.7391ZM13.2895 21.7391L-10.4738 44.0692L-0.815103 54.3478H13.2895V21.7391ZM12.4802 20.8778H-20.1285V33.7948L-11.2831 43.2079L12.4802 20.8778ZM12.4802 14.8488H45.0889V-17.7599H12.4802V14.8488ZM9.24277 14.8488V-17.7599H-23.3659V14.8488H9.24277ZM9.24277 20.8778L33.0061 43.2079L41.8515 33.7948V20.8778H9.24277ZM8.43342 21.7391V54.3478H22.5381L32.1967 44.0692L8.43342 21.7391ZM3.57733 21.7391L-20.186 44.0692L-10.5273 54.3478H3.57733V21.7391ZM2.76798 20.8778H-29.8407V33.7948L-20.9953 43.2079L2.76798 20.8778ZM2.76798 9.64997H35.3767V-67.2039L-19.8911 -13.7998L2.76798 9.64997ZM1.14928 11.2141L-22.614 33.5442L0.0294254 57.641L23.8083 34.6639L1.14928 11.2141ZM0 9.99104L-22.7283 -13.3917L-45.7193 8.95586L-23.7633 32.3211L0 9.99104ZM10.2787 0V-32.6087H-2.95791L-12.4495 -23.3827L10.2787 0ZM4.38667 8.08413L-18.2756 -15.3626L-28.222 -5.74892V8.08413H4.38667ZM4.38667 20.0165H-28.222V52.6252H4.38667V20.0165ZM7.62407 20.0165V52.6252H40.2328V20.0165H7.62407ZM7.62407 13.9875L-16.1392 -8.34262L-24.9846 1.0705V13.9875H7.62407ZM8.43342 13.1262V-19.4825H-5.67119L-15.3299 -9.20392L8.43342 13.1262ZM13.2895 13.1262L37.0528 -9.20392L27.3941 -19.4825H13.2895V13.1262ZM14.0989 13.9875H46.7076V1.0705L37.8622 -8.34262L14.0989 13.9875ZM14.0989 20.0165H-18.5098V52.6252H14.0989V20.0165ZM17.3363 20.0165V52.6252H49.945V20.0165H17.3363ZM17.3363 8.0738H49.945V-5.77515L39.9792 -15.3916L17.3363 8.0738ZM10.8615 1.82595L33.5044 -21.6395L10.8428 -43.5068L-11.8008 -21.6207L10.8615 1.82595ZM-11.2657 23.4006L-0.970746 33.3917L44.449 -13.4096L34.1541 -23.4006L-11.2657 23.4006ZM-2.02418 -12.339L-3.17346 -11.116L44.3532 33.5442L45.5024 32.3211L-2.02418 -12.339ZM43.2351 -12.2491L41.6002 -13.827L-3.69028 33.0993L-2.0554 34.6772L43.2351 -12.2491ZM-13.6537 9.63619V20.8778H51.5637V9.63619H-13.6537ZM-4.80834 -1.45224L-5.61769 -0.590941L41.9089 44.0692L42.7183 43.2079L-4.80834 -1.45224ZM18.1456 -10.8696H13.2895V54.3478H18.1456V-10.8696ZM37.0528 -0.590941L36.2435 -1.45224L-11.2831 43.2079L-10.4738 44.0692L37.0528 -0.590941ZM45.0889 20.8778V14.8488H-20.1285V20.8778H45.0889ZM12.4802 -17.7599H9.24277V47.4575H12.4802V-17.7599ZM-23.3659 14.8488V20.8778H41.8515V14.8488H-23.3659ZM-14.5206 -1.45223L-15.3299 -0.590928L32.1967 44.0692L33.0061 43.2079L-14.5206 -1.45223ZM8.43342 -10.8696H3.57733V54.3478H8.43342V-10.8696ZM27.3406 -0.590935L26.5313 -1.45223L-20.9953 43.2079L-20.186 44.0692L27.3406 -0.590935ZM35.3767 20.8778V9.64997H-29.8407V20.8778H35.3767ZM-19.8911 -13.7998L-21.5098 -12.2357L23.8083 34.6639L25.427 33.0998L-19.8911 -13.7998ZM24.9126 -11.116L23.7633 -12.339L-23.7633 32.3211L-22.614 33.5442L24.9126 -11.116ZM22.7283 33.3738L33.007 23.3827L-12.4495 -23.3827L-22.7283 -13.3917L22.7283 33.3738ZM10.2787 32.6087H11.4442V-32.6087H10.2787V32.6087ZM-28.222 8.08413V20.0165H36.9954V8.08413H-28.222ZM4.38667 52.6252H7.62407V-12.5922H4.38667V52.6252ZM40.2328 20.0165V13.9875H-24.9846V20.0165H40.2328ZM31.3874 36.3175L32.1967 35.4562L-15.3299 -9.20392L-16.1392 -8.34262L31.3874 36.3175ZM8.43342 45.7349H13.2895V-19.4825H8.43342V45.7349ZM-10.4738 35.4562L-9.66443 36.3175L37.8622 -8.34262L37.0528 -9.20392L-10.4738 35.4562ZM-18.5098 13.9875V20.0165H46.7076V13.9875H-18.5098ZM14.0989 52.6252H17.3363V-12.5922H14.0989V52.6252ZM49.945 20.0165V8.0738H-15.2724V20.0165H49.945ZM39.9792 -15.3916L33.5044 -21.6395L-11.7814 25.2914L-5.30665 31.5392L39.9792 -15.3916ZM-11.8008 -21.6207L-18.2756 -15.3626L27.049 31.5308L33.5238 25.2726L-11.8008 -21.6207Z" fill="#5EAFA1" mask="url(#path-1-inside-1_301_9218)"/>
</svg>
