<svg width="48" height="49" viewBox="0 0 48 49" fill="none" xmlns="http://www.w3.org/2000/svg">
<g filter="url(#filter0_d_1_5423)">
<path d="M42.6695 22.7026C42.6695 28.0021 40.57 33.0847 36.8329 36.832C33.0958 40.5794 28.0271 42.6847 22.742 42.6847C17.4569 42.6847 12.3882 40.5794 8.65109 36.832C4.91396 33.0847 2.81445 28.0021 2.81445 22.7026C2.81445 17.403 4.91396 12.3205 8.65109 8.57308C12.3882 4.82571 17.4569 2.72046 22.742 2.72046C28.0271 2.72046 33.0958 4.82571 36.8329 8.57308C40.57 12.3205 42.6695 17.403 42.6695 22.7026ZM12.7782 22.7026C12.7782 23.0338 12.9094 23.3514 13.143 23.5857C13.3766 23.8199 13.6934 23.9514 14.0237 23.9514H31.4603C31.7906 23.9514 32.1074 23.8199 32.341 23.5857C32.5745 23.3514 32.7058 23.0338 32.7058 22.7026C32.7058 22.3713 32.5745 22.0537 32.341 21.8195C32.1074 21.5853 31.7906 21.4537 31.4603 21.4537H14.0237C13.6934 21.4537 13.3766 21.5853 13.143 21.8195C12.9094 22.0537 12.7782 22.3713 12.7782 22.7026Z" fill="white"/>
</g>
<path d="M11.8726 21.3401H33.6117V24.065H11.8726V21.3401Z" fill="black"/>
<defs>
<filter id="filter0_d_1_5423" x="0.0958914" y="0.908085" width="47.1046" height="47.2137" filterUnits="userSpaceOnUse" color-interpolation-filters="sRGB">
<feFlood flood-opacity="0" result="BackgroundImageFix"/>
<feColorMatrix in="SourceAlpha" type="matrix" values="0 0 0 0 0 0 0 0 0 0 0 0 0 0 0 0 0 0 127 0" result="hardAlpha"/>
<feOffset dx="0.906187" dy="1.81237"/>
<feGaussianBlur stdDeviation="1.81237"/>
<feComposite in2="hardAlpha" operator="out"/>
<feColorMatrix type="matrix" values="0 0 0 0 0 0 0 0 0 0 0 0 0 0 0 0 0 0 0.4 0"/>
<feBlend mode="normal" in2="BackgroundImageFix" result="effect1_dropShadow_1_5423"/>
<feBlend mode="normal" in="SourceGraphic" in2="effect1_dropShadow_1_5423" result="shape"/>
</filter>
</defs>
</svg>
