<svg width="20" height="22" viewBox="0 0 20 22" fill="none" xmlns="http://www.w3.org/2000/svg">
<path d="M19.4235 14.2332L19.4236 14.2333C19.4733 14.2823 19.5 14.3473 19.5 14.4136C19.5 14.4136 19.5 14.4136 19.5 14.4137V16.6894C19.5 16.7557 19.4733 16.8208 19.4236 16.8698C19.3736 16.9191 19.3044 16.948 19.2308 16.948H13.8462H13.3462V17.448V18.2061C13.3456 18.6652 13.2477 19.1194 13.0584 19.5394C12.8691 19.9594 12.5925 20.3363 12.246 20.6454C11.8995 20.9546 11.4907 21.1892 11.0459 21.3337C10.6033 21.4776 10.135 21.5289 9.6709 21.4845C8.82563 21.3766 8.05155 20.9659 7.49562 20.3325C6.93836 19.6975 6.63921 18.8834 6.65377 18.0461L6.65385 18.0461V18.0375V17.448V16.948H6.15385H0.769231C0.695599 16.948 0.626362 16.9191 0.57639 16.8698C0.526652 16.8208 0.5 16.7557 0.5 16.6894V14.4137C0.5 14.4136 0.5 14.4136 0.5 14.4136C0.500043 14.3473 0.526703 14.2823 0.576418 14.2333L0.576472 14.2332L2.65878 12.1797L2.80769 12.0328V11.8237V9.10358C2.81001 7.34955 3.47163 5.6575 4.66646 4.35479C5.86154 3.0518 7.50538 2.23085 9.28071 2.05265L9.73077 2.00747V1.55515V0.5H10.2692V1.55515V2.00747L10.7193 2.05265C12.4946 2.23085 14.1385 3.0518 15.3335 4.35479C16.5285 5.65759 17.1901 7.34979 17.1923 9.10395V11.8237V12.0328L17.3412 12.1797L19.4235 14.2332ZM7.69231 16.948H7.19231V17.448V18.2066C7.19231 18.9451 7.48983 19.6519 8.01713 20.1719C8.54419 20.6917 9.25758 20.9825 10 20.9825C10.7424 20.9825 11.4558 20.6917 11.9829 20.1719C12.5102 19.6519 12.8077 18.9451 12.8077 18.2066V17.448V16.948H12.3077H7.69231ZM18.4615 16.4308H18.9615V15.9308V14.7276V14.5185L18.8126 14.3716L16.7303 12.3181L16.7303 12.318C16.6805 12.269 16.6539 12.204 16.6538 12.1377C16.6538 12.1377 16.6538 12.1377 16.6538 12.1376V9.10331C16.6538 7.35888 15.9511 5.68732 14.7025 4.45597C13.4542 3.22485 11.7625 2.53444 10 2.53444C8.23752 2.53444 6.54584 3.22485 5.29749 4.45597C4.0489 5.68732 3.34615 7.35888 3.34615 9.10331V12.1376C3.34615 12.1377 3.34615 12.1377 3.34615 12.1377C3.34611 12.204 3.31945 12.269 3.26974 12.318L3.26968 12.3181L1.18737 14.3716L1.03846 14.5185V14.7276V15.9308V16.4308H1.53846H18.4615Z" fill="#5EAFA1" stroke="#5EAFA1"/>
</svg>
