<svg width="20" height="19" viewBox="0 0 20 19" fill="none" xmlns="http://www.w3.org/2000/svg">
<path d="M12.0841 2.26128L12.3375 2.51326L12.658 2.3551C13.2977 2.03934 14.0123 1.90659 14.7227 1.97149C15.4332 2.03639 16.1119 2.29643 16.6838 2.72288C17.2557 3.14932 17.6986 3.72557 17.9636 4.38795C18.2285 5.05033 18.3052 5.77307 18.1852 6.47631L18.0943 7.00842L18.6318 7.05831C18.7627 7.07045 18.8897 7.10945 19.0049 7.17286C19.12 7.23627 19.2209 7.32273 19.3011 7.42685C19.3813 7.53097 19.4393 7.65051 19.4713 7.77802C19.5032 7.90552 19.5086 8.03825 19.487 8.16792L19.487 8.16806C18.8436 12.038 17.2804 14.3453 14.9096 15.3085L14.5978 15.4352V15.7717V16.7505C14.5978 17.1974 14.4203 17.6259 14.1043 17.9419C13.7884 18.2579 13.3598 18.4354 12.913 18.4354H7.08674C6.63989 18.4354 6.21134 18.2579 5.89537 17.9419C5.57941 17.6259 5.4019 17.1974 5.4019 16.7505V15.7717V15.4352L5.0901 15.3085C2.71934 14.3453 1.15615 12.0382 0.512787 8.16837C0.491945 8.04219 0.496619 7.91311 0.526531 7.78877C0.556453 7.66438 0.611023 7.54726 0.687013 7.44433C0.763002 7.34141 0.858866 7.25477 0.968931 7.18955C1.079 7.12433 1.20103 7.08186 1.3278 7.06463L1.76049 7.00586V6.56919V6.56773V6.55462C1.76048 5.35859 2.1147 4.18935 2.77846 3.19442C3.44222 2.19948 4.3858 1.42343 5.49013 0.964163C6.59447 0.5049 7.81008 0.383003 8.98362 0.613851C10.1572 0.8447 11.236 1.41795 12.0841 2.26128ZM2.21705 6.55462V7.05462H2.71705H4.17362H4.67362V6.55462C4.67362 5.72147 5.00458 4.92244 5.59371 4.33331C6.18284 3.74419 6.98187 3.41322 7.81502 3.41322C8.64817 3.41322 9.4472 3.74419 10.0363 4.33331C10.6255 4.92244 10.9564 5.72147 10.9564 6.55462V7.05462H11.4564H12.913H13.413V6.55462C13.413 5.06995 12.8232 3.64608 11.7734 2.59626C10.7236 1.54644 9.29969 0.956657 7.81502 0.956657C6.33034 0.956657 4.90648 1.54644 3.85666 2.59626C2.80684 3.64608 2.21705 5.06995 2.21705 6.55462ZM5.13018 6.55462V7.05462H5.63018H9.99986H10.4999V6.55462C10.4999 5.84256 10.217 5.15966 9.71349 4.65615C9.20998 4.15264 8.52708 3.86978 7.81502 3.86978C7.10295 3.86978 6.42005 4.15264 5.91655 4.65615C5.41304 5.15966 5.13018 5.84256 5.13018 6.55462ZM15.1969 6.30638L14.7689 7.05462H15.6309H17.1909H17.5792L17.6753 6.67837C17.8041 6.17418 17.8161 5.64725 17.7104 5.13771C17.6047 4.62818 17.3841 4.1495 17.0654 3.73814C16.7467 3.32679 16.3383 2.99361 15.8713 2.76401C15.4043 2.5344 14.8911 2.41443 14.3707 2.41322H14.3695C13.9609 2.41322 13.5711 2.48486 13.2084 2.61659L12.6283 2.82727L12.9547 3.35101C13.1926 3.73266 13.3894 4.14484 13.5406 4.57819L13.6907 5.00848L14.133 4.89877C14.3154 4.85354 14.5071 4.86285 14.6842 4.92556C14.8614 4.98827 15.0162 5.10161 15.1295 5.25152C15.2428 5.40142 15.3096 5.5813 15.3215 5.76883C15.3335 5.95635 15.2902 6.14327 15.1969 6.30638ZM14.1413 16.0223V15.5223H13.6413H6.35846H5.85846V16.0223V16.7505C5.85846 17.0763 5.98786 17.3887 6.21821 17.6191C6.44856 17.8494 6.76098 17.9788 7.08674 17.9788H12.913C13.2387 17.9788 13.5512 17.8494 13.7815 17.6191C14.0119 17.3887 14.1413 17.0763 14.1413 16.7505V16.0223ZM5.69268 15.0417L5.76733 15.0657H5.84575H14.154H14.2324L14.307 15.0417C16.8742 14.2162 18.4055 11.89 19.0373 8.09325L19.1341 7.51118H18.544H1.45567H0.865595L0.962455 8.09325C1.59425 11.89 3.12555 14.2162 5.69268 15.0417Z" fill="#5EAFA1" stroke="#5EAFA1"/>
</svg>
