<svg width="21" height="20" viewBox="0 0 21 20" fill="none" xmlns="http://www.w3.org/2000/svg">
<path d="M10.5072 19.116H13.2042C13.2418 17.7387 13.4234 16.9814 13.7495 16.844C17.1508 15.4098 19.5652 11.7861 19.5652 7.54193H1.44922C1.44922 11.694 3.76036 15.2528 7.04569 16.7479C7.38898 16.9039 7.64578 17.6939 7.81516 19.116H10.5072Z" fill="#5EAFA1"/>
<path d="M10.5072 19.116H13.2042C13.2418 17.7387 13.4234 16.9814 13.7495 16.844C17.1508 15.4098 19.5652 11.7861 19.5652 7.54193H1.44922C1.44922 11.694 3.76036 15.2528 7.04569 16.7479C7.38898 16.9039 7.64578 17.6939 7.81516 19.116H10.5072Z" fill="#5EAFA1"/>
<path d="M10.5072 19.116H13.2042C13.2418 17.7387 13.4234 16.9814 13.7495 16.844C17.1508 15.4098 19.5652 11.7861 19.5652 7.54193H1.44922C1.44922 11.694 3.76036 15.2528 7.04569 16.7479C7.38898 16.9039 7.64578 17.6939 7.81516 19.116H10.5072Z" fill="#5EAFA1"/>
<path d="M10.5072 19.116H13.2042C13.2418 17.7387 13.4234 16.9814 13.7495 16.844C17.1508 15.4098 19.5652 11.7861 19.5652 7.54193H1.44922C1.44922 11.694 3.76036 15.2528 7.04569 16.7479C7.38898 16.9039 7.64578 17.6939 7.81516 19.116H10.5072Z" fill="#5EAFA1"/>
<path d="M10.5072 19.116H13.2042C13.2418 17.7387 13.4234 16.9814 13.7495 16.844C17.1508 15.4098 19.5652 11.7861 19.5652 7.54193H1.44922C1.44922 11.694 3.76036 15.2528 7.04569 16.7479C7.38898 16.9039 7.64578 17.6939 7.81516 19.116H10.5072Z" fill="#5EAFA1"/>
<path d="M10.5072 19.116H13.2042C13.2418 17.7387 13.4234 16.9814 13.7495 16.844C17.1508 15.4098 19.5652 11.7861 19.5652 7.54193H1.44922C1.44922 11.694 3.76036 15.2528 7.04569 16.7479C7.38898 16.9039 7.64578 17.6939 7.81516 19.116H10.5072Z" fill="#5EAFA1"/>
<path d="M10.5072 19.116H13.2042C13.2418 17.7387 13.4234 16.9814 13.7495 16.844C17.1508 15.4098 19.5652 11.7861 19.5652 7.54193H1.44922C1.44922 11.694 3.76036 15.2528 7.04569 16.7479C7.38898 16.9039 7.64578 17.6939 7.81516 19.116H10.5072Z" fill="#5EAFA1"/>
<path d="M10.5072 19.116H13.2042C13.2418 17.7387 13.4234 16.9814 13.7495 16.844C17.1508 15.4098 19.5652 11.7861 19.5652 7.54193H1.44922C1.44922 11.694 3.76036 15.2528 7.04569 16.7479C7.38898 16.9039 7.64578 17.6939 7.81516 19.116H10.5072Z" fill="#5EAFA1"/>
<path d="M10.5072 19.116H13.2042C13.2418 17.7387 13.4234 16.9814 13.7495 16.844C17.1508 15.4098 19.5652 11.7861 19.5652 7.54193H1.44922C1.44922 11.694 3.76036 15.2528 7.04569 16.7479C7.38898 16.9039 7.64578 17.6939 7.81516 19.116H10.5072Z" fill="#5EAFA1"/>
<path d="M10.5072 19.116H13.2042C13.2418 17.7387 13.4234 16.9814 13.7495 16.844C17.1508 15.4098 19.5652 11.7861 19.5652 7.54193H1.44922C1.44922 11.694 3.76036 15.2528 7.04569 16.7479C7.38898 16.9039 7.64578 17.6939 7.81516 19.116H10.5072Z" stroke="#5EAFA1" stroke-width="1.54347" stroke-linejoin="round"/>
<path d="M6.17905 11.076C6.34209 11.6733 6.55767 12.167 6.82534 12.5565C7.10441 12.9559 7.43038 13.312 7.79454 13.6152M14.2212 2.0155C13.6446 1.65752 13.0284 1.38465 12.3883 1.2038L14.2212 2.0155ZM9.62425 1C6.39825 1.41415 3.77914 4.06864 3.03458 7.54187L9.62425 1ZM17.9802 7.54036C17.6818 6.15084 17.0775 4.86539 16.2216 3.79942L17.9802 7.54036Z" fill="#5EAFA1"/>
<path d="M6.17905 11.076C6.34209 11.6733 6.55767 12.167 6.82534 12.5565C7.10441 12.9559 7.43038 13.312 7.79454 13.6152M14.2212 2.0155C13.6446 1.65752 13.0284 1.38465 12.3883 1.2038L14.2212 2.0155ZM9.62425 1C6.39825 1.41415 3.77914 4.06864 3.03458 7.54187L9.62425 1ZM17.9802 7.54036C17.6818 6.15084 17.0775 4.86539 16.2216 3.79942L17.9802 7.54036Z" fill="#5EAFA1"/>
<path d="M6.17905 11.076C6.34209 11.6733 6.55767 12.167 6.82534 12.5565C7.10441 12.9559 7.43038 13.312 7.79454 13.6152M14.2212 2.0155C13.6446 1.65752 13.0284 1.38465 12.3883 1.2038L14.2212 2.0155ZM9.62425 1C6.39825 1.41415 3.77914 4.06864 3.03458 7.54187L9.62425 1ZM17.9802 7.54036C17.6818 6.15084 17.0775 4.86539 16.2216 3.79942L17.9802 7.54036Z" fill="#5EAFA1"/>
<path d="M6.17905 11.076C6.34209 11.6733 6.55767 12.167 6.82534 12.5565C7.10441 12.9559 7.43038 13.312 7.79454 13.6152M14.2212 2.0155C13.6446 1.65752 13.0284 1.38465 12.3883 1.2038L14.2212 2.0155ZM9.62425 1C6.39825 1.41415 3.77914 4.06864 3.03458 7.54187L9.62425 1ZM17.9802 7.54036C17.6818 6.15084 17.0775 4.86539 16.2216 3.79942L17.9802 7.54036Z" fill="#5EAFA1"/>
<path d="M6.17905 11.076C6.34209 11.6733 6.55767 12.167 6.82534 12.5565C7.10441 12.9559 7.43038 13.312 7.79454 13.6152M14.2212 2.0155C13.6446 1.65752 13.0284 1.38465 12.3883 1.2038L14.2212 2.0155ZM9.62425 1C6.39825 1.41415 3.77914 4.06864 3.03458 7.54187L9.62425 1ZM17.9802 7.54036C17.6818 6.15084 17.0775 4.86539 16.2216 3.79942L17.9802 7.54036Z" fill="#5EAFA1"/>
<path d="M6.17905 11.076C6.34209 11.6733 6.55767 12.167 6.82534 12.5565C7.10441 12.9559 7.43038 13.312 7.79454 13.6152M14.2212 2.0155C13.6446 1.65752 13.0284 1.38465 12.3883 1.2038L14.2212 2.0155ZM9.62425 1C6.39825 1.41415 3.77914 4.06864 3.03458 7.54187L9.62425 1ZM17.9802 7.54036C17.6818 6.15084 17.0775 4.86539 16.2216 3.79942L17.9802 7.54036Z" fill="#5EAFA1"/>
<path d="M6.17905 11.076C6.34209 11.6733 6.55767 12.167 6.82534 12.5565C7.10441 12.9559 7.43038 13.312 7.79454 13.6152M14.2212 2.0155C13.6446 1.65752 13.0284 1.38465 12.3883 1.2038L14.2212 2.0155ZM9.62425 1C6.39825 1.41415 3.77914 4.06864 3.03458 7.54187L9.62425 1ZM17.9802 7.54036C17.6818 6.15084 17.0775 4.86539 16.2216 3.79942L17.9802 7.54036Z" fill="#5EAFA1"/>
<path d="M6.17905 11.076C6.34209 11.6733 6.55767 12.167 6.82534 12.5565C7.10441 12.9559 7.43038 13.312 7.79454 13.6152M14.2212 2.0155C13.6446 1.65752 13.0284 1.38465 12.3883 1.2038L14.2212 2.0155ZM9.62425 1C6.39825 1.41415 3.77914 4.06864 3.03458 7.54187L9.62425 1ZM17.9802 7.54036C17.6818 6.15084 17.0775 4.86539 16.2216 3.79942L17.9802 7.54036Z" fill="#5EAFA1"/>
<path d="M6.17905 11.076C6.34209 11.6733 6.55767 12.167 6.82534 12.5565C7.10441 12.9559 7.43038 13.312 7.79454 13.6152M14.2212 2.0155C13.6446 1.65752 13.0284 1.38465 12.3883 1.2038L14.2212 2.0155ZM9.62425 1C6.39825 1.41415 3.77914 4.06864 3.03458 7.54187L9.62425 1ZM17.9802 7.54036C17.6818 6.15084 17.0775 4.86539 16.2216 3.79942L17.9802 7.54036Z" fill="#5EAFA1"/>
<path d="M6.17905 11.076C6.34209 11.6733 6.55767 12.167 6.82534 12.5565C7.10441 12.9559 7.43038 13.312 7.79454 13.6152M14.2212 2.0155C13.6446 1.65752 13.0284 1.38465 12.3883 1.2038M9.62425 1C6.39825 1.41415 3.77914 4.06864 3.03458 7.54187M17.9802 7.54036C17.6818 6.15084 17.0775 4.86539 16.2216 3.79942" stroke="#5EAFA1" stroke-width="1.54347" stroke-linecap="round"/>
</svg>
