<svg width="48" height="49" viewBox="0 0 48 49" fill="none" xmlns="http://www.w3.org/2000/svg">
<g filter="url(#filter0_d_1_5426)">
<path d="M42.7203 22.7026C42.7203 28.0021 40.6208 33.0847 36.8837 36.832C33.1465 40.5794 28.0779 42.6847 22.7928 42.6847C17.5077 42.6847 12.439 40.5794 8.70188 36.832C4.96474 33.0847 2.86523 28.0021 2.86523 22.7026C2.86523 17.403 4.96474 12.3205 8.70188 8.57308C12.439 4.82571 17.5077 2.72046 22.7928 2.72046C28.0779 2.72046 33.1465 4.82571 36.8837 8.57308C40.6208 12.3205 42.7203 17.403 42.7203 22.7026ZM12.829 22.7026C12.829 23.0338 12.9602 23.3514 13.1938 23.5857C13.4274 23.8199 13.7442 23.9514 14.0745 23.9514H21.5473V31.4447C21.5473 31.776 21.6785 32.0936 21.9121 32.3278C22.1457 32.562 22.4625 32.6936 22.7928 32.6936C23.1231 32.6936 23.4399 32.562 23.6735 32.3278C23.907 32.0936 24.0382 31.776 24.0382 31.4447V23.9514H31.5111C31.8414 23.9514 32.1582 23.8199 32.3918 23.5857C32.6253 23.3514 32.7565 23.0338 32.7565 22.7026C32.7565 22.3713 32.6253 22.0537 32.3918 21.8195C32.1582 21.5853 31.8414 21.4537 31.5111 21.4537H24.0382V13.9604C24.0382 13.6292 23.907 13.3115 23.6735 13.0773C23.4399 12.8431 23.1231 12.7115 22.7928 12.7115C22.4625 12.7115 22.1457 12.8431 21.9121 13.0773C21.6785 13.3115 21.5473 13.6292 21.5473 13.9604V21.4537H14.0745C13.7442 21.4537 13.4274 21.5853 13.1938 21.8195C12.9602 22.0537 12.829 22.3713 12.829 22.7026Z" fill="white"/>
</g>
<path d="M24.6611 21.4537V12.7115H21.8305V21.4537H11.9233V23.9514H21.8305V32.6936H24.6611V23.9514H34.5683V21.4537H24.6611Z" fill="black"/>
<defs>
<filter id="filter0_d_1_5426" x="0.146673" y="0.908085" width="47.1045" height="47.2137" filterUnits="userSpaceOnUse" color-interpolation-filters="sRGB">
<feFlood flood-opacity="0" result="BackgroundImageFix"/>
<feColorMatrix in="SourceAlpha" type="matrix" values="0 0 0 0 0 0 0 0 0 0 0 0 0 0 0 0 0 0 127 0" result="hardAlpha"/>
<feOffset dx="0.906187" dy="1.81237"/>
<feGaussianBlur stdDeviation="1.81237"/>
<feComposite in2="hardAlpha" operator="out"/>
<feColorMatrix type="matrix" values="0 0 0 0 0 0 0 0 0 0 0 0 0 0 0 0 0 0 0.4 0"/>
<feBlend mode="normal" in2="BackgroundImageFix" result="effect1_dropShadow_1_5426"/>
<feBlend mode="normal" in="SourceGraphic" in2="effect1_dropShadow_1_5426" result="shape"/>
</filter>
</defs>
</svg>
