<svg width="107" height="92" viewBox="0 0 107 92" fill="none" xmlns="http://www.w3.org/2000/svg">
<path d="M83.7377 16.7312C75.8965 10.2212 66.1765 6.41007 56.0111 5.85997V19.0691H50.7122V5.85732C40.5463 6.40911 30.8263 10.2221 22.9857 16.7339L30.9341 24.704L27.1877 28.4633L19.091 20.3417C11.7379 27.9366 7.11774 37.7715 5.96029 48.2929H16.4097V53.6064H5.6715C5.66092 64.3359 9.26881 74.7539 15.909 83.1676L23.6401 75.4153L27.3891 79.1719L19.4275 87.158L19.4752 87.2084L15.7129 90.9464C5.87254 81.0153 0.356646 67.5795 0.372593 53.5798C0.372593 24.2497 24.0985 0.472168 53.3617 0.472168C82.6249 0.472168 106.351 24.2471 106.351 53.5798C106.359 60.6978 104.935 67.7442 102.165 74.2978C99.3947 80.8515 95.3352 86.7777 90.2289 91.7222L86.5435 87.9045L86.5752 87.8726L77.3631 78.6352L81.1121 74.8786L90.1732 83.9646C97.2149 75.4245 101.062 64.6874 101.052 53.6064H89.6168V48.2929H100.763C99.6051 37.7725 94.985 27.9386 87.6324 20.3444L79.8562 28.1365L76.1099 24.3826L83.7403 16.7312H83.7377Z" fill="white"/>
</svg>
