<svg width="20" height="17" viewBox="0 0 20 17" fill="none" xmlns="http://www.w3.org/2000/svg">
<path d="M2.02496 7.23248H16.2372L11.8873 1.97797C11.6839 1.73186 11.586 1.41456 11.6152 1.09589C11.6444 0.777211 11.7983 0.483259 12.043 0.278696C12.2878 0.0741339 12.6033 -0.0242819 12.9201 0.00509964C13.237 0.0344812 13.5293 0.189253 13.7327 0.435368L19.7244 7.66634C19.7647 7.72385 19.8007 7.78427 19.8322 7.84711C19.8322 7.90737 19.8322 7.94352 19.9161 8.00378C19.9704 8.14196 19.9989 8.28906 20 8.43764C19.9989 8.58622 19.9704 8.73332 19.9161 8.8715C19.9161 8.93176 19.9161 8.96791 19.8322 9.02817C19.8007 9.09101 19.7647 9.15143 19.7244 9.20895L13.7327 16.4399C13.62 16.576 13.4789 16.6854 13.3195 16.7603C13.16 16.8353 12.986 16.8741 12.81 16.8738C12.53 16.8743 12.2586 16.7763 12.043 16.5966C11.9217 16.4954 11.8214 16.3712 11.7479 16.2309C11.6744 16.0907 11.6291 15.9373 11.6146 15.7795C11.6001 15.6216 11.6168 15.4624 11.6636 15.3111C11.7103 15.1597 11.7864 15.0191 11.8873 14.8973L16.2372 9.6428H2.02496C1.70714 9.6428 1.40234 9.51583 1.17761 9.28982C0.952875 9.06381 0.826624 8.75727 0.826624 8.43764C0.826624 8.11801 0.952875 7.81147 1.17761 7.58546C1.40234 7.35945 1.70714 7.23248 2.02496 7.23248Z" fill="#5EAFA1"/>
</svg>
