<svg width="21" height="21" viewBox="0 0 21 21" fill="none" xmlns="http://www.w3.org/2000/svg">
<path d="M8.82807 16.9296C4.28 16.9296 0.616272 13.2657 0.616272 8.71756C0.616272 4.16937 4.28 0.505554 8.82807 0.505554C13.3761 0.505554 17.0399 4.16937 17.0399 8.71756C17.0399 13.2657 13.3761 16.9296 8.82807 16.9296ZM8.82807 1.76894C4.97484 1.76894 1.87963 4.86423 1.87963 8.71756C1.87963 12.5709 4.97484 15.6662 8.82807 15.6662C12.6813 15.6662 15.7765 12.5709 15.7765 8.71756C15.7765 4.86423 12.6813 1.76894 8.82807 1.76894Z" fill="white"/>
<path d="M14.9435 13.9397L20.616 19.6123L19.7228 20.5056L14.0504 14.833L14.9435 13.9397Z" fill="white"/>
</svg>
