<svg width="22" height="22" viewBox="0 0 22 22" fill="none" xmlns="http://www.w3.org/2000/svg">
<path d="M15.4444 15.4444V6.55554M11 15.4444V9.88888M6.55554 15.4444V12.1111" stroke="#5EAFA1" stroke-width="1.5" stroke-linecap="round" stroke-linejoin="round"/>
<path d="M1 20.3333V1.66667C1 1.48986 1.07024 1.32029 1.19526 1.19526C1.32029 1.07024 1.48986 1 1.66667 1H20.3333C20.5101 1 20.6797 1.07024 20.8047 1.19526C20.9298 1.32029 21 1.48986 21 1.66667V20.3333C21 20.5101 20.9298 20.6797 20.8047 20.8047C20.6797 20.9298 20.5101 21 20.3333 21H1.66667C1.48986 21 1.32029 20.9298 1.19526 20.8047C1.07024 20.6797 1 20.5101 1 20.3333V20.3333Z" stroke="#5EAFA1" stroke-width="1.5"/>
</svg>
