<svg width="21" height="22" viewBox="0 0 21 22" fill="none" xmlns="http://www.w3.org/2000/svg">
<path d="M16.3287 4.12521C16.3703 4.15648 16.4077 4.18595 16.44 4.21216L16.5803 4.33303C18.634 6.10305 19.9348 8.71562 19.9348 11.6363C19.9348 16.9656 15.6141 21.2862 10.2848 21.2862C4.95555 21.2862 0.634853 16.9656 0.634055 11.6362L0.634054 11.6359C0.632886 10.2488 0.932032 8.87794 1.51094 7.61745C2.08984 6.35695 2.93478 5.23673 3.98769 4.33376L3.9946 4.32783L4.00081 4.32206L4.00095 4.32193L4.00096 4.32192L4.0011 4.32179L4.00127 4.32163L4.00303 4.32002L4.01407 4.31007C4.02441 4.30084 4.04049 4.28667 4.06159 4.2687C4.10393 4.23263 4.16569 4.18188 4.24104 4.12526C4.39545 4.00921 4.59072 3.88078 4.78357 3.79785C4.98976 3.70918 5.11435 3.70637 5.17208 3.72501L5.1728 3.72524C5.19096 3.73104 5.28916 3.76241 5.35962 4.05441L5.35965 4.05452C5.89915 6.2875 7.87448 7.97965 10.2848 7.97965C12.6952 7.97965 14.6705 6.2875 15.21 4.05452C15.2807 3.76249 15.379 3.73107 15.3972 3.72524L15.3979 3.72502C15.4557 3.70636 15.5803 3.70919 15.7864 3.79784C15.9792 3.88076 16.1743 4.00917 16.3287 4.12521ZM10.4961 9.53105L10.0899 8.70859L9.6839 9.53115L9.11445 10.6849L7.84129 10.8713L6.93275 11.0043L7.59129 11.6442L8.51281 12.5396L8.29421 13.8068L8.1374 14.7158L8.95253 14.284L10.0902 13.6813L11.2286 14.2833L12.0432 14.7141L11.8867 13.806L11.668 12.538L12.5896 11.6425L13.2487 11.0021L12.3393 10.8696L11.0655 10.684L10.4961 9.53105ZM3.07515 16.0508L3.2843 16.3892L3.64688 16.2254C5.3956 15.4354 6.62737 13.6883 6.62737 11.6363C6.62737 9.5843 5.3956 7.83717 3.64688 7.04713L3.2843 6.88332L3.07515 7.22179C2.25541 8.54833 1.82123 10.0769 1.82123 11.6363C1.82123 13.1957 2.25541 14.7242 3.07515 16.0508ZM5.69561 18.2752L5.53202 18.6377L5.87031 18.8468C7.19681 19.6666 8.72527 20.1011 10.2847 20.1017H10.285C11.8446 20.1011 13.373 19.6657 14.6994 18.846L15.0378 18.6368L14.874 18.2742C14.084 16.5255 12.3368 15.2938 10.2848 15.2938C8.23292 15.2938 6.48567 16.5246 5.69561 18.2752ZM16.9228 16.2254L17.2854 16.3892L17.4945 16.0508C18.3142 14.7244 18.7493 13.1958 18.7493 11.6363C18.7493 10.0769 18.3151 8.54833 17.4954 7.22179L17.2862 6.88339L16.9237 7.0471C15.1741 7.83712 13.9423 9.58427 13.9423 11.6363C13.9423 13.6874 15.174 15.4354 16.9228 16.2254ZM12.7584 2.92642C12.7584 4.29 11.6484 5.39994 10.2848 5.39994C8.92125 5.39994 7.81131 4.29 7.81131 2.92642C7.81131 1.56284 8.92125 0.452899 10.2848 0.452899C11.6484 0.452899 12.7584 1.56284 12.7584 2.92642Z" fill="white" stroke="#5EAFA1" stroke-width="0.905797"/>
</svg>
